<svg width="48" height="48" viewBox="0 0 48 48" fill="none" xmlns="http://www.w3.org/2000/svg">
<rect width="48" height="48" rx="4" fill="#5E52AD"/>
<path d="M12.3529 40C11.7255 40 11.1765 39.76 10.7059 39.28C10.2353 38.8 10 38.24 10 37.6V13.48H12.3529V37.6H30.9412V40H12.3529ZM17.0588 35.2C16.4314 35.2 15.8824 34.96 15.4118 34.48C14.9412 34 14.7059 33.44 14.7059 32.8V10.4C14.7059 9.76 14.9412 9.2 15.4118 8.72C15.8824 8.24 16.4314 8 17.0588 8H34.3137C34.9412 8 35.4902 8.24 35.9608 8.72C36.4314 9.2 36.6667 9.76 36.6667 10.4V32.8C36.6667 33.44 36.4314 34 35.9608 34.48C35.4902 34.96 34.9412 35.2 34.3137 35.2H17.0588ZM17.0588 32.8H34.3137V10.4H17.0588V32.8Z" fill="white"/>
</svg>
