<svg width="49" height="49" viewBox="0 0 49 49" fill="none" xmlns="http://www.w3.org/2000/svg">
<rect x="0.5" y="0.997559" width="48" height="48" rx="4" fill="#94929F"/>
<g clip-path="url(#clip0_1110_1645)">
<path d="M12.8529 40.9976C12.2255 40.9976 11.6765 40.7576 11.2059 40.2776C10.7353 39.7976 10.5 39.2376 10.5 38.5976V14.4776H12.8529V38.5976H31.4412V40.9976H12.8529ZM17.5588 36.1976C16.9314 36.1976 16.3824 35.9576 15.9118 35.4776C15.4412 34.9976 15.2059 34.4376 15.2059 33.7976V11.3976C15.2059 10.7576 15.4412 10.1976 15.9118 9.71756C16.3824 9.23756 16.9314 8.99756 17.5588 8.99756H34.8137C35.4412 8.99756 35.9902 9.23756 36.4608 9.71756C36.9314 10.1976 37.1667 10.7576 37.1667 11.3976V33.7976C37.1667 34.4376 36.9314 34.9976 36.4608 35.4776C35.9902 35.9576 35.4412 36.1976 34.8137 36.1976H17.5588ZM17.5588 33.7976H34.8137V11.3976H17.5588V33.7976Z" fill="white"/>
</g>
<defs>
<clipPath id="clip0_1110_1645">
<rect x="8.5" y="8.99756" width="32" height="32" fill="white"/>
</clipPath>
</defs>
</svg>
