<svg width="189" height="57" viewBox="0 0 189 57" fill="none" xmlns="http://www.w3.org/2000/svg">
<g clip-path="url(#clip0_1129_1075)">
<rect x="-0.000488281" y="0.997559" width="189" height="56" rx="8" fill="#010100"/>
<path fill-rule="evenodd" clip-rule="evenodd" d="M30.3795 47.8975C21.8395 47.8975 17.4995 47.8975 14.8395 45.2375C12.1795 42.5775 12.1795 38.2375 12.1795 29.6975V28.1575C12.1795 19.6175 12.1795 15.2775 14.8395 12.6175C17.4995 9.95752 21.8395 9.95752 30.3795 9.95752H31.9195C40.4595 9.95752 44.7995 9.95752 47.4595 12.6175C50.1195 15.2775 50.1195 19.6175 50.1195 28.1575V29.6975C50.1195 38.2375 50.1195 42.5775 47.4595 45.2375C44.7995 47.8975 40.4595 47.8975 31.9195 47.8975H30.3795Z" fill="#3B6DAF"/>
<path d="M34.0195 33.3375C33.0395 33.0575 32.3395 32.2175 32.3395 31.0975V18.7775C32.3395 17.5175 33.4595 16.6775 34.5795 16.9575L41.8595 18.7775C42.8395 19.0575 43.5395 19.8975 43.5395 21.0175V33.3375C43.5395 34.5975 42.4195 35.4375 41.2995 35.1575L34.0195 33.3375Z" fill="white"/>
<path d="M20.2995 39.0775C19.3195 38.7975 18.6195 37.9575 18.6195 36.8375V24.5175C18.6195 23.2575 19.7395 22.4175 20.8595 22.6975L28.1395 24.5175C29.1195 24.7975 29.8195 25.6375 29.8195 26.7575V39.0775C29.8195 40.3375 28.6995 41.1775 27.5795 40.8975L20.2995 39.0775Z" fill="white"/>
<path d="M27.1595 36.2775C26.1795 35.9975 25.4795 35.1575 25.4795 34.0375V21.7175C25.4795 20.4575 26.5995 19.6175 27.7195 19.8975L34.9995 21.7175C35.9795 21.9975 36.6795 22.8375 36.6795 23.9575V36.2775C36.6795 37.5375 35.5595 38.3775 34.4395 38.0975L27.1595 36.2775Z" fill="white"/>
<path d="M31.9195 37.3974C31.6395 37.2574 31.3595 36.9774 31.3595 36.6974L31.0795 27.3174C30.9395 26.0574 30.0995 25.0774 29.1195 24.7974H28.9795V24.9374C29.2595 25.0774 29.8195 25.7774 29.8195 26.7574V36.8374L31.9195 37.3974Z" fill="#3B6DAF"/>
<path d="M38.9195 34.5976C38.6395 34.4576 38.3595 34.1776 38.3595 33.8976L38.0795 24.5176C37.9395 23.2576 37.0995 22.2776 36.1195 21.9976H35.9795V22.1376C36.2595 22.2776 36.8195 22.9776 36.8195 23.9576V34.0376L38.9195 34.5976Z" fill="#3B6DAF"/>
<path d="M68.0395 38.6574C70.5595 37.9574 72.2395 36.1374 72.2395 33.6174C72.2395 30.5374 69.7195 28.2974 66.2195 28.2974H60.0595V44.9574H62.8595V38.7974H64.9595L69.4395 44.9574H72.7995L68.0395 38.6574ZM66.2195 30.8174C68.0395 30.8174 69.2995 31.9374 69.2995 33.4774C69.2995 35.0174 68.0395 36.1374 66.2195 36.1374H62.8595V30.8174H66.2195Z" fill="white"/>
<path d="M79.2395 45.2375C80.7795 45.2375 82.1795 44.3975 82.8795 43.1375L83.4395 44.9574H85.5395V32.6375H82.7395V39.7775C82.7395 41.5975 81.6195 42.7174 79.9395 42.7174C78.3995 42.7174 77.2795 41.4575 77.2795 39.7775V32.6375H74.4795V40.0574C74.4795 42.9974 76.5795 45.2375 79.2395 45.2375Z" fill="white"/>
<path d="M94.2195 45.2375C97.4395 45.2375 99.9595 43.4175 99.9595 40.4775C99.9595 37.1175 97.1595 36.1375 94.7795 35.2975C92.9595 34.7375 91.2795 34.1775 91.2795 32.6375C91.2795 31.3775 92.5395 30.6775 93.9395 30.6775C95.4795 30.6775 96.4595 31.5175 97.1595 32.7775L99.8195 32.3575C98.9795 29.6975 96.7395 28.1575 93.7995 28.1575C90.7195 28.1575 88.3395 29.9775 88.3395 32.9175C88.3395 36.2775 91.1395 37.2575 93.5195 37.9575C95.3395 38.5175 97.0195 39.0775 97.0195 40.6175C97.0195 41.8775 95.7595 42.7175 94.2195 42.7175C92.3995 42.7175 91.4195 41.8775 90.4395 40.1975L87.6395 40.6175C88.6195 43.4175 91.1395 45.2375 94.2195 45.2375Z" fill="white"/>
<path d="M107.52 42.5775C106.54 42.5775 106.12 42.1575 106.12 41.1775V35.0174H109.76V32.6375H106.12V29.1375H104.02L103.32 32.6375H101.22V35.0174H103.32V41.1775C103.32 43.5575 104.72 44.9575 107.52 44.9575H109.9L110.18 42.5775H107.52Z" fill="white"/>
<path d="M118.019 45.2374C121.939 45.2374 124.599 42.5774 124.599 38.7974C124.599 35.0174 121.799 32.3574 118.019 32.3574C114.099 32.3574 111.439 35.0174 111.439 38.7974C111.439 42.5774 114.099 45.2374 118.019 45.2374ZM118.019 42.7174C115.779 42.7174 114.239 41.1774 114.239 38.7974C114.239 36.4174 115.779 34.8774 118.019 34.8774C120.259 34.8774 121.799 36.4174 121.799 38.7974C121.659 41.1774 120.259 42.7174 118.019 42.7174Z" fill="white"/>
<path d="M129.779 44.9575V37.6775C129.779 36.1375 130.479 35.2975 132.159 35.2975H133.699L133.42 32.6375H132.999C131.599 32.6375 130.479 33.0575 129.639 34.4575L129.079 32.6375H126.979V44.9575H129.779Z" fill="white"/>
<path d="M147.28 38.6574C147.28 35.1574 144.62 32.3574 140.84 32.3574C137.06 32.3574 134.4 35.1574 134.4 38.7974C134.4 42.4374 137.06 45.2374 140.84 45.2374C143.36 45.2374 145.88 43.9774 146.86 41.7374L144.34 41.3174C143.78 42.1574 142.66 42.8574 141.12 42.8574C139.02 42.8574 137.62 41.5974 137.34 39.6374H147.28C147.28 39.2174 147.28 38.9374 147.28 38.6574ZM140.84 34.7374C142.52 34.7374 143.92 35.8574 144.34 37.3974H137.48C137.9 35.8574 139.16 34.7374 140.84 34.7374Z" fill="white"/>
<path d="M58.5195 20.4573H59.3595C59.4995 20.1773 59.6395 19.7573 59.7795 19.3373C59.9195 18.9173 60.0595 18.3573 60.1995 17.7973C60.3395 17.2373 60.3395 16.6773 60.4795 16.1173C60.4795 15.5573 60.6195 14.8573 60.6195 14.2973V12.4773H66.3595V20.4573H67.3395V23.6773H66.2195V21.4373H59.7795V23.6773H58.6595V20.4573H58.5195ZM65.0995 20.4573V13.4573H61.7395V14.7173C61.7395 15.2773 61.7395 15.8373 61.5995 16.3973C61.5995 16.9573 61.4595 17.5173 61.3195 17.9373C61.1795 18.4973 61.1795 18.9173 61.0395 19.3373C60.8995 19.7573 60.7595 20.0373 60.6195 20.3173H65.0995V20.4573Z" fill="white"/>
<path d="M71.1195 21.5773C70.5595 21.5773 70.1395 21.4373 69.7195 21.2973C69.2995 21.1573 69.0195 20.8773 68.7395 20.5973C68.4595 20.3173 68.3195 19.8973 68.1795 19.4773C68.0395 19.0573 68.0395 18.6373 68.0395 18.2173C68.0395 17.7973 68.0395 17.2373 68.1795 16.8173C68.3195 16.3973 68.4595 15.9773 68.7395 15.6973C69.0195 15.4173 69.2995 15.1373 69.7195 14.9973C70.1395 14.8573 70.5595 14.7173 71.1195 14.7173C71.6795 14.7173 72.0995 14.8573 72.5195 14.9973C72.9395 15.1373 73.2195 15.4173 73.4995 15.6973C73.7795 15.9773 73.9195 16.3973 74.0595 16.8173C74.1995 17.2373 74.1995 17.6573 74.1995 18.2173C74.1995 18.6373 74.1995 19.1973 74.0595 19.4773C73.9195 19.8973 73.7795 20.1773 73.4995 20.5973C73.2195 20.8773 72.9395 21.1573 72.5195 21.2973C72.0995 21.4373 71.6795 21.5773 71.1195 21.5773ZM71.1195 20.5973C71.3995 20.5973 71.6795 20.5973 71.9595 20.4573C72.2395 20.3173 72.3795 20.1773 72.6595 20.0373C72.7995 19.8973 72.9395 19.6173 73.0795 19.3373C73.2195 19.0573 73.2195 18.6373 73.2195 18.3573C73.2195 17.9373 73.2195 17.6573 73.0795 17.3773C72.9395 17.0973 72.7995 16.8173 72.6595 16.6773C72.5195 16.5373 72.2395 16.2573 71.9595 16.2573C71.6795 16.1173 71.3995 16.1173 71.1195 16.1173C70.8395 16.1173 70.5595 16.1173 70.2795 16.2573C69.9995 16.3973 69.8595 16.5373 69.5795 16.6773C69.4395 16.8173 69.2995 17.0973 69.1595 17.3773C69.0195 17.6573 69.0195 18.0773 69.0195 18.3573C69.0195 18.7773 69.0195 19.0573 69.1595 19.3373C69.2995 19.6173 69.4395 19.8973 69.5795 20.0373C69.7195 20.1773 69.9995 20.4573 70.2795 20.4573C70.5595 20.5973 70.8395 20.5973 71.1195 20.5973Z" fill="white"/>
<path d="M78.1195 21.5773C77.5595 21.5773 77.1395 21.4373 76.8595 21.2973C76.4395 21.1573 76.1595 20.8773 75.8795 20.5973C75.5995 20.3173 75.4595 19.8973 75.3195 19.6173C75.1795 19.3373 75.1795 18.7773 75.1795 18.2173C75.1795 17.7973 75.1795 17.2373 75.3195 16.8173C75.4595 16.3973 75.5995 15.9773 75.8795 15.6973C76.1595 15.4173 76.4395 15.1373 76.8595 14.9973C77.2795 14.8573 77.6995 14.7173 78.2595 14.7173C78.6795 14.7173 78.9595 14.7173 79.2395 14.8573C79.5195 14.9973 79.7995 15.1373 80.0795 15.2773C80.3595 15.4173 80.4995 15.6973 80.6395 15.9773C80.7795 16.2573 80.9195 16.5373 80.9195 16.9573H79.7995C79.6595 16.5373 79.5195 16.2573 79.2395 15.9773C78.9595 15.6973 78.6795 15.6973 78.1195 15.6973C77.6995 15.6973 77.4195 15.8373 77.1395 15.9773C76.8595 16.1173 76.7195 16.2573 76.5795 16.5373C76.4395 16.8173 76.2995 17.0973 76.2995 17.3773C76.2995 17.6573 76.1595 17.9373 76.1595 18.3573C76.1595 18.6373 76.1595 18.9173 76.2995 19.1973C76.4395 19.4773 76.4395 19.7573 76.5795 19.8973C76.7195 20.1773 76.8595 20.3173 77.1395 20.4573C77.4195 20.5973 77.6995 20.5973 77.9795 20.5973C78.5395 20.5973 78.9595 20.4573 79.2395 20.1773C79.5195 19.8973 79.6595 19.4773 79.7995 19.0573H80.9195C80.7795 19.8973 80.4995 20.4573 80.0795 20.8773C79.6595 21.2973 78.9595 21.5773 78.1195 21.5773Z" fill="white"/>
<path d="M83.7195 15.9773H81.3395V14.9973H87.0795V15.9773H84.6995V21.4373H83.5795V15.9773H83.7195Z" fill="white"/>
<path d="M88.6195 23.9573C88.4795 23.9573 88.3395 23.9573 88.1995 23.9573C88.0595 23.9573 87.9195 23.9573 87.7795 23.8173V22.8373C87.9195 22.8373 87.9195 22.8373 88.0595 22.9773C88.1995 22.9773 88.3395 22.9773 88.3395 22.9773C88.6195 22.9773 88.7595 22.9773 88.8995 22.8373C89.0395 22.6973 89.1795 22.5573 89.1795 22.4173L89.5995 21.2973L87.3595 14.9973H88.6195L90.4395 20.3173L92.2595 14.9973H93.3795L90.5795 22.2773C90.4395 22.5573 90.2995 22.8373 90.1595 23.1173C90.0195 23.3973 89.8795 23.5373 89.7395 23.6773C89.5995 23.8173 89.4595 23.9573 89.3195 23.9573C89.0395 23.9573 88.8995 23.9573 88.6195 23.9573Z" fill="white"/>
<path d="M94.2195 14.9973H99.5395V21.4373H98.4195V15.9773H95.3395V21.4373H94.2195V14.9973Z" fill="white"/>
<path d="M101.079 14.9973H102.2V17.5173H105.42V14.9973H106.54V21.4373H105.42V18.4973H102.2V21.4373H101.079V14.9973Z" fill="white"/>
<path d="M110.88 21.5773C110.32 21.5773 109.9 21.4373 109.48 21.2973C109.06 21.1573 108.78 20.8773 108.5 20.5973C108.22 20.3173 108.08 19.8973 107.94 19.4773C107.8 19.0573 107.8 18.6373 107.8 18.2173C107.8 17.7973 107.8 17.2373 107.94 16.8173C108.08 16.3973 108.22 15.9773 108.5 15.6973C108.78 15.4173 109.06 15.1373 109.48 14.9973C109.9 14.8573 110.32 14.7173 110.88 14.7173C111.44 14.7173 111.86 14.8573 112.28 14.9973C112.7 15.1373 112.98 15.4173 113.26 15.6973C113.54 15.9773 113.68 16.3973 113.82 16.8173C113.96 17.2373 113.96 17.6573 113.96 18.2173C113.96 18.6373 113.96 19.1973 113.82 19.4773C113.68 19.8973 113.54 20.1773 113.26 20.5973C112.98 20.8773 112.7 21.1573 112.28 21.2973C111.86 21.4373 111.44 21.5773 110.88 21.5773ZM110.88 20.5973C111.16 20.5973 111.44 20.5973 111.72 20.4573C112 20.3173 112.14 20.1773 112.42 20.0373C112.56 19.8973 112.7 19.6173 112.84 19.3373C112.98 19.0573 112.98 18.6373 112.98 18.3573C112.98 17.9373 112.98 17.6573 112.84 17.3773C112.7 17.0973 112.56 16.8173 112.42 16.6773C112.28 16.5373 112 16.2573 111.72 16.2573C111.44 16.1173 111.16 16.1173 110.88 16.1173C110.6 16.1173 110.32 16.1173 110.04 16.2573C109.76 16.3973 109.62 16.5373 109.34 16.6773C109.2 16.8173 109.06 17.0973 108.92 17.3773C108.78 17.6573 108.78 18.0773 108.78 18.3573C108.78 18.7773 108.78 19.0573 108.92 19.3373C109.06 19.6173 109.2 19.8973 109.34 20.0373C109.48 20.1773 109.76 20.4573 110.04 20.4573C110.32 20.5973 110.6 20.5973 110.88 20.5973Z" fill="white"/>
<path d="M118.719 14.9973H121.799C122.079 14.9973 122.359 14.9973 122.639 14.9973C122.919 14.9973 123.199 15.1373 123.339 15.2773C123.479 15.4173 123.759 15.5573 123.899 15.6973C124.039 15.8373 124.039 16.1173 124.039 16.5373C124.039 16.8173 123.899 17.2373 123.759 17.3773C123.619 17.6573 123.339 17.7973 123.059 17.9373C123.479 18.0773 123.759 18.2173 123.899 18.4973C124.179 18.7773 124.179 19.0573 124.179 19.6173C124.179 19.8973 124.179 20.1773 124.039 20.3173C123.899 20.5973 123.759 20.7373 123.619 20.8773C123.479 21.0173 123.199 21.1573 123.059 21.2973C122.779 21.4373 122.499 21.4373 122.219 21.4373H118.719V14.9973ZM121.659 17.6573C122.079 17.6573 122.499 17.5173 122.639 17.3773C122.779 17.2373 122.919 16.9573 122.919 16.6773C122.919 16.3973 122.779 16.2573 122.639 16.1173C122.499 15.9773 122.079 15.8373 121.659 15.8373H119.839V17.5173H121.659V17.6573ZM122.079 20.5973C122.359 20.5973 122.639 20.4573 122.919 20.3173C123.059 20.1773 123.199 19.8973 123.199 19.6173C123.199 19.3373 123.059 19.0573 122.919 18.9173C122.779 18.7773 122.359 18.6373 121.939 18.6373H119.839V20.5973H122.079Z" fill="white"/>
</g>
<defs>
<clipPath id="clip0_1129_1075">
<rect x="-0.000488281" y="0.997559" width="189" height="56" rx="8" fill="white"/>
</clipPath>
</defs>
</svg>
