<svg width="189" height="57" viewBox="0 0 189 57" fill="none" xmlns="http://www.w3.org/2000/svg">
<rect y="0.997559" width="188.999" height="55.9997" rx="8" fill="#010100"/>
<mask id="mask0_1129_1051" style="mask-type:luminance" maskUnits="userSpaceOnUse" x="0" y="0" width="189" height="57">
<path d="M0 0.997608H188.999V56.9973H0V0.997608Z" fill="white"/>
</mask>
<g mask="url(#mask0_1129_1051)">
<path d="M149.71 42.9973H152.322V25.4961H149.71V42.9973ZM173.24 31.8001L170.245 39.3882H170.155L167.047 31.8001H164.234L168.894 42.4052L166.237 48.3048H168.961L176.145 31.8001H173.24ZM158.425 41.0093C157.568 41.0093 156.375 40.581 156.375 39.5225C156.375 38.1716 157.861 37.6549 159.145 37.6549C160.293 37.6549 160.833 37.9028 161.532 38.2401C161.329 39.8612 159.933 41.0093 158.425 41.0093ZM158.74 31.418C156.849 31.418 154.889 32.251 154.078 34.0962L156.398 35.0649C156.893 34.0962 157.816 33.7811 158.785 33.7811C160.136 33.7811 161.509 34.5918 161.532 36.0324V36.2129C161.058 35.9429 160.045 35.5383 158.807 35.5383C156.308 35.5383 153.763 36.9116 153.763 39.4777C153.763 41.82 155.813 43.3279 158.109 43.3279C159.865 43.3279 160.833 42.541 161.442 41.617H161.532V42.968H164.053V36.2577C164.053 33.1512 161.735 31.418 158.74 31.418ZM142.595 33.9309H138.88V27.9306H142.595C144.548 27.9306 145.657 29.5491 145.657 30.9309C145.657 32.2875 144.548 33.9309 142.595 33.9309ZM142.528 25.4961H136.269V42.9973H138.88V36.367H142.528C145.423 36.367 148.27 34.2697 148.27 30.9309C148.27 27.5918 145.423 25.4961 142.528 25.4961ZM108.395 41.0123C106.59 41.0123 105.08 39.5017 105.08 37.4268C105.08 35.3297 106.59 33.7951 108.395 33.7951C110.177 33.7951 111.574 35.3297 111.574 37.4268C111.574 39.5017 110.177 41.0123 108.395 41.0123ZM111.394 32.7802H111.304C110.717 32.0816 109.59 31.4487 108.169 31.4487C105.191 31.4487 102.463 34.0655 102.463 37.4268C102.463 40.7644 105.191 43.3587 108.169 43.3587C109.59 43.3587 110.717 42.7272 111.304 42.005H111.394V42.8615C111.394 45.1407 110.177 46.3575 108.214 46.3575C106.612 46.3575 105.62 45.2079 105.214 44.2377L102.936 45.1857C103.59 46.7647 105.327 48.7039 108.214 48.7039C111.282 48.7039 113.876 46.8993 113.876 42.5016V31.8101H111.394V32.7802ZM115.679 42.9973H118.296V25.4947H115.679V42.9973ZM122.152 37.2237C122.085 34.9221 123.935 33.7504 125.265 33.7504C126.303 33.7504 127.183 34.2685 127.475 35.0131L122.152 37.2237ZM130.272 35.2387C129.775 33.9072 128.265 31.4487 125.175 31.4487C122.108 31.4487 119.56 33.8624 119.56 37.4043C119.56 40.7419 122.085 43.3587 125.468 43.3587C128.198 43.3587 129.775 41.6898 130.431 40.7197L128.401 39.3659C127.723 40.3583 126.799 41.0123 125.468 41.0123C124.138 41.0123 123.19 40.4032 122.581 39.2091L130.543 35.9148L130.272 35.2387ZM66.8415 33.2773V35.8027H72.8853C72.7045 37.2237 72.2315 38.2612 71.5103 38.9821C70.6299 39.8627 69.2537 40.8317 66.8415 40.8317C63.1188 40.8317 60.2095 37.8329 60.2095 34.1102C60.2095 30.389 63.1188 27.3902 66.8415 27.3902C68.8491 27.3902 70.3148 28.1784 71.397 29.1933L73.1791 27.4127C71.6671 25.9692 69.6609 24.8633 66.8415 24.8633C61.744 24.8633 57.4588 29.0143 57.4588 34.1102C57.4588 39.2091 61.744 43.3587 66.8415 43.3587C69.5925 43.3587 71.6671 42.4555 73.2911 40.7644C74.96 39.0956 75.4796 36.7507 75.4796 34.8551C75.4796 34.2685 75.4345 33.7281 75.3435 33.2773H66.8415ZM82.3505 41.0123C80.5474 41.0123 78.9907 39.524 78.9907 37.4043C78.9907 35.2609 80.5474 33.7951 82.3505 33.7951C84.1551 33.7951 85.7119 35.2609 85.7119 37.4043C85.7119 39.524 84.1551 41.0123 82.3505 41.0123ZM82.3505 31.4487C79.0577 31.4487 76.3739 33.9534 76.3739 37.4043C76.3739 40.8317 79.0577 43.3587 82.3505 43.3587C85.6434 43.3587 88.3286 40.8317 88.3286 37.4043C88.3286 33.9534 85.6434 31.4487 82.3505 31.4487ZM95.39 41.0123C93.5855 41.0123 92.0287 39.524 92.0287 37.4043C92.0287 35.2609 93.5855 33.7951 95.39 33.7951C97.1949 33.7951 98.7502 35.2609 98.7502 37.4043C98.7502 39.524 97.1949 41.0123 95.39 41.0123ZM95.39 31.4487C92.0975 31.4487 89.4134 33.9534 89.4134 37.4043C89.4134 40.8317 92.0975 43.3587 95.39 43.3587C98.6829 43.3587 101.367 40.8317 101.367 37.4043C101.367 33.9534 98.6829 31.4487 95.39 31.4487Z" fill="white"/>
<path d="M29.004 28.191L14.0983 44.0112C14.0997 44.0138 14.0997 44.0181 14.101 44.0208C14.5589 45.7387 16.1269 47.0029 17.9889 47.0029C18.7337 47.0029 19.4322 46.8013 20.0315 46.4485L20.0791 46.4204L36.8567 36.7396L29.004 28.191Z" fill="#EB3131"/>
<path d="M44.0831 25.4973L44.0694 25.4874L36.8257 21.2887L28.6651 28.5505L36.8549 36.7378L44.0594 32.5813C45.3222 31.8978 46.1806 30.5666 46.1806 29.0321C46.1806 27.5061 45.3347 26.1816 44.0831 25.4973Z" fill="#F6B60B"/>
<path d="M14.0979 13.9852C14.0084 14.3155 13.9608 14.6628 13.9608 15.0212V42.9764C13.9608 43.3348 14.0084 43.6818 14.0994 44.011L29.5161 28.5955L14.0979 13.9852Z" fill="#5778C5"/>
<path d="M29.114 28.9988L36.828 21.2861L20.0701 11.5702C19.4611 11.2047 18.7499 10.9947 17.9897 10.9947C16.1276 10.9947 14.5569 12.2618 14.0991 13.9809C14.0991 13.9824 14.0977 13.9838 14.0977 13.9853L29.114 28.9988Z" fill="#3BAD49"/>
</g>
<path d="M60.2941 18.982C59.5998 18.5844 59.0536 18.0364 58.656 17.3378C58.2578 16.6394 58.0591 15.8682 58.0591 15.0233C58.0591 14.1792 58.2578 13.4077 58.656 12.7096C59.0536 12.0113 59.5998 11.463 60.2941 11.0651C60.9883 10.6672 61.7575 10.4683 62.6022 10.4683C63.9096 10.4683 64.9851 10.9431 65.8298 11.8934L64.8921 12.8068C64.5916 12.4495 64.2566 12.1818 63.8871 12.0031C63.5176 11.8243 63.0934 11.7348 62.6144 11.7348C62.0217 11.7348 61.4816 11.8708 60.9945 12.1429C60.5074 12.4153 60.1215 12.8006 59.8374 13.3C59.553 13.7995 59.4111 14.3741 59.4111 15.0233C59.4111 15.6731 59.553 16.2477 59.8374 16.7471C60.1215 17.2462 60.5074 17.6324 60.9945 17.9039C61.4816 18.1763 62.0217 18.3123 62.6144 18.3123C63.6051 18.3123 64.4371 17.9021 65.1112 17.0821L66.0735 18.0078C65.6513 18.5031 65.1434 18.889 64.551 19.1649C63.9582 19.4405 63.3087 19.5789 62.6022 19.5789C61.7575 19.5789 60.9883 19.3799 60.2941 18.982Z" fill="white"/>
<path d="M67.5714 10.6631H68.9114V14.8896H68.9842L72.4558 10.6631H74.1367V10.7363L70.4582 15.0964L74.3315 19.3109V19.384H72.5776L68.9842 15.389H68.9114V19.384H67.5714V10.6631Z" fill="white"/>
<path d="M80.5673 15.9007L79.5931 13.2269L79.2642 12.2284H79.1911L78.8622 13.2269L77.888 15.9007H80.5673ZM78.4603 10.6631H79.9828L83.2835 19.384H81.8099L81.0059 17.143H77.4494L76.6454 19.384H75.1718L78.4603 10.6631Z" fill="white"/>
<path d="M88.3262 15.4987C87.7821 15.9777 87.1121 16.2173 86.3166 16.2173C85.7885 16.2173 85.3116 16.1099 84.8853 15.8943C84.4591 15.6795 84.1241 15.3688 83.8804 14.9627C83.6367 14.5566 83.515 14.0777 83.515 13.5256V10.6631H84.8669V13.2942C84.8669 13.822 85.0214 14.2301 85.3301 14.518C85.6384 14.8062 86.0524 14.9507 86.5723 14.9507C87.2789 14.9507 87.8634 14.6745 88.3262 14.1222V10.6631H89.6539V19.384H88.3262V15.4987Z" fill="white"/>
<path d="M96.2306 15.9007L95.2563 13.2269L94.9275 12.2284H94.8543L94.5255 13.2269L93.5512 15.9007H96.2306ZM94.1235 10.6631H95.646L98.9468 19.384H97.4731L96.6691 17.143H93.1127L92.3087 19.384H90.835L94.1235 10.6631Z" fill="white"/>
<path d="M101.212 11.93H98.7642V10.6631H104.988V11.93H102.552V19.384H101.212V11.93Z" fill="white"/>
<path d="M109.665 18.1295C109.982 18.1295 110.262 18.0564 110.506 17.9104C110.749 17.7641 110.936 17.5713 111.066 17.3317C111.196 17.0923 111.261 16.8384 111.261 16.5704C111.261 16.3027 111.196 16.049 111.066 15.8091C110.936 15.5698 110.749 15.375 110.506 15.2246C110.262 15.0742 109.982 14.9993 109.665 14.9993H107.717V18.1295H109.665ZM106.377 10.6631H107.717V13.769H109.568C110.112 13.769 110.615 13.8805 111.078 14.104C111.541 14.3276 111.91 14.652 112.186 15.0783C112.463 15.5046 112.6 16.0019 112.6 16.5704C112.6 17.1389 112.463 17.6362 112.186 18.0625C111.91 18.4888 111.541 18.8159 111.078 19.0429C110.615 19.2702 110.112 19.384 109.568 19.384H106.377V10.6631Z" fill="white"/>
<path d="M116.912 10.6631H118.24V15.4864L118.167 17.1672H118.24L122.15 10.6631H123.672V19.384H122.344V14.4387L122.418 12.7582H122.344L118.374 19.384H116.912V10.6631Z" fill="white"/>
<path d="M126.297 19.0186C125.749 18.645 125.373 18.0929 125.17 17.3621L126.4 16.8749C126.506 17.3296 126.711 17.6868 127.015 17.9469C127.32 18.2067 127.679 18.3366 128.093 18.3366C128.54 18.3366 128.922 18.1965 129.238 17.9162C129.555 17.6362 129.713 17.2892 129.713 16.8749C129.713 16.6069 129.636 16.3615 129.482 16.138C129.327 15.9147 129.117 15.7383 128.849 15.6084C128.581 15.4785 128.288 15.4136 127.972 15.4136H127.253V14.2439H127.899C128.337 14.2439 128.702 14.1242 128.995 13.8846C129.287 13.6453 129.433 13.3226 129.433 12.9165C129.433 12.5593 129.297 12.2629 129.025 12.0271C128.753 11.7918 128.414 11.6739 128.008 11.6739C127.643 11.6739 127.334 11.7837 127.082 12.0031C126.83 12.2219 126.656 12.482 126.559 12.7822L125.377 12.2951C125.547 11.8164 125.858 11.3922 126.309 11.0224C126.76 10.6529 127.33 10.4683 128.02 10.4683C128.548 10.4683 129.017 10.5718 129.427 10.779C129.837 10.9858 130.158 11.2702 130.389 11.6315C130.621 11.9928 130.736 12.401 130.736 12.8553C130.736 13.7 130.367 14.3252 129.628 14.7313V14.8044C130.042 14.9911 130.379 15.2632 130.639 15.6204C130.899 15.9776 131.029 16.4121 131.029 16.9238C131.029 17.4191 130.901 17.8697 130.645 18.2758C130.389 18.6816 130.038 19.0002 129.592 19.2316C129.145 19.463 128.645 19.5789 128.093 19.5789C127.444 19.5789 126.845 19.3919 126.297 19.0186Z" fill="white"/>
</svg>
