<svg width="190" height="57" viewBox="0 0 190 57" fill="none" xmlns="http://www.w3.org/2000/svg">
<mask id="mask0_1110_1688" style="mask-type:luminance" maskUnits="userSpaceOnUse" x="0" y="0" width="190" height="57">
<path d="M0.529663 0.997852H189.529V56.9976H0.529663V0.997852Z" fill="white"/>
</mask>
<g mask="url(#mask0_1110_1688)">
<path d="M182.529 56.9973H7.52961C3.67969 56.9973 0.529663 53.8475 0.529663 49.9973V7.99755C0.529663 4.14734 3.67969 0.997547 7.52961 0.997547H182.529C186.379 0.997547 189.529 4.14734 189.529 7.99755V49.9973C189.529 53.8475 186.379 56.9973 182.529 56.9973Z" fill="#100F0D"/>
<path d="M182.529 0.997852H7.52961C3.67969 0.997852 0.529663 4.14765 0.529663 7.99786V49.9976C0.529663 53.8478 3.67969 56.9976 7.52961 56.9976H182.529C186.379 56.9976 189.529 53.8478 189.529 49.9976V7.99786C189.529 4.14765 186.379 0.997852 182.529 0.997852ZM182.529 2.11781C185.772 2.11781 188.409 4.75532 188.409 7.99786V49.9976C188.409 53.2401 185.772 55.8777 182.529 55.8777H7.52961C4.28724 55.8777 1.64965 53.2401 1.64965 49.9976V7.99786C1.64965 4.75532 4.28724 2.11781 7.52961 2.11781H182.529Z" fill="#A2A2A1"/>
<path d="M150.24 42.9975H152.852V25.4964H150.24V42.9975ZM173.769 31.8004L170.775 39.3884H170.685L167.577 31.8004H164.763L169.424 42.4054L166.767 48.305H169.491L176.674 31.8004H173.769ZM158.955 41.0095C158.098 41.0095 156.905 40.5812 156.905 39.5227C156.905 38.1719 158.39 37.6552 159.674 37.6552C160.822 37.6552 161.363 37.9031 162.061 38.2403C161.858 39.8614 160.462 41.0095 158.955 41.0095ZM159.27 31.4183C157.378 31.4183 155.418 32.2512 154.608 34.0964L156.927 35.0651C157.423 34.0964 158.346 33.7813 159.314 33.7813C160.665 33.7813 162.039 34.592 162.061 36.0327V36.2132C161.588 35.9431 160.574 35.5385 159.337 35.5385C156.838 35.5385 154.293 36.9119 154.293 39.4779C154.293 41.8203 156.342 43.3281 158.638 43.3281C160.395 43.3281 161.363 42.5412 161.972 41.6172H162.061V42.9683H164.583V36.2579C164.583 33.1514 162.264 31.4183 159.27 31.4183ZM143.125 33.9311H139.409V27.9308H143.125C145.078 27.9308 146.187 29.5493 146.187 30.9311C146.187 32.2878 145.078 33.9311 143.125 33.9311ZM143.058 25.4964H136.798V42.9975H139.409V36.3673H143.058C145.953 36.3673 148.799 34.2699 148.799 30.9311C148.799 27.592 145.953 25.4964 143.058 25.4964ZM108.924 41.0125C107.12 41.0125 105.609 39.5019 105.609 37.4271C105.609 35.3299 107.12 33.7954 108.924 33.7954C110.707 33.7954 112.104 35.3299 112.104 37.4271C112.104 39.5019 110.707 41.0125 108.924 41.0125ZM111.923 32.7805H111.834C111.247 32.0818 110.12 31.449 108.699 31.449C105.721 31.449 102.993 34.0657 102.993 37.4271C102.993 40.7646 105.721 43.3589 108.699 43.3589C110.12 43.3589 111.247 42.7275 111.834 42.0052H111.923V42.8618C111.923 45.1409 110.707 46.3577 108.744 46.3577C107.142 46.3577 106.15 45.2081 105.744 44.238L103.466 45.186C104.12 46.7649 105.857 48.7041 108.744 48.7041C111.811 48.7041 114.405 46.8996 114.405 42.5019V31.8103H111.923V32.7805ZM116.208 42.9975H118.825V25.4949H116.208V42.9975ZM122.682 37.224C122.615 34.9224 124.464 33.7506 125.794 33.7506C126.833 33.7506 127.712 34.2688 128.005 35.0133L122.682 37.224ZM130.802 35.2389C130.305 33.9074 128.794 31.449 125.705 31.449C122.637 31.449 120.089 33.8627 120.089 37.4046C120.089 40.7421 122.615 43.3589 125.997 43.3589C128.727 43.3589 130.305 41.69 130.96 40.72L128.93 39.3661C128.253 40.3586 127.329 41.0125 125.997 41.0125C124.667 41.0125 123.72 40.4034 123.11 39.2093L131.072 35.915L130.802 35.2389ZM67.3711 33.2775V35.803H73.415C73.2342 37.224 72.7611 38.2615 72.0399 38.9824C71.1596 39.8629 69.7833 40.832 67.3711 40.832C63.6485 40.832 60.7392 37.8331 60.7392 34.1105C60.7392 30.3893 63.6485 27.3905 67.3711 27.3905C69.3787 27.3905 70.8445 28.1786 71.9267 29.1936L73.7087 27.413C72.1968 25.9694 70.1906 24.8635 67.3711 24.8635C62.2737 24.8635 57.9884 29.0145 57.9884 34.1105C57.9884 39.2093 62.2737 43.3589 67.3711 43.3589C70.1221 43.3589 72.1968 42.4557 73.8208 40.7646C75.4896 39.0958 76.0092 36.751 76.0092 34.8554C76.0092 34.2688 75.9642 33.7284 75.8732 33.2775H67.3711ZM82.8802 41.0125C81.0771 41.0125 79.5203 39.5242 79.5203 37.4046C79.5203 35.2611 81.0771 33.7954 82.8802 33.7954C84.6848 33.7954 86.2415 35.2611 86.2415 37.4046C86.2415 39.5242 84.6848 41.0125 82.8802 41.0125ZM82.8802 31.449C79.5873 31.449 76.9036 33.9537 76.9036 37.4046C76.9036 40.8319 79.5873 43.3589 82.8802 43.3589C86.1731 43.3589 88.8583 40.8319 88.8583 37.4046C88.8583 33.9537 86.1731 31.449 82.8802 31.449ZM95.9197 41.0125C94.1151 41.0125 92.5584 39.5242 92.5584 37.4046C92.5584 35.2611 94.1151 33.7954 95.9197 33.7954C97.7246 33.7954 99.2799 35.2611 99.2799 37.4046C99.2799 39.5242 97.7246 41.0125 95.9197 41.0125ZM95.9197 31.449C92.6271 31.449 89.9431 33.9537 89.9431 37.4046C89.9431 40.8319 92.6271 43.3589 95.9197 43.3589C99.2126 43.3589 101.896 40.8319 101.896 37.4046C101.896 33.9537 99.2126 31.449 95.9197 31.449Z" fill="white"/>
<path d="M29.5336 28.1913L14.6279 44.0114C14.6293 44.0141 14.6293 44.0184 14.6307 44.021C15.0885 45.739 16.6565 47.0032 18.5185 47.0032C19.2633 47.0032 19.9618 46.8016 20.5611 46.4488L20.6087 46.4207L37.3863 36.7398L29.5336 28.1913Z" fill="#EB3131"/>
<path d="M44.6128 25.4975L44.599 25.4876L37.3553 21.2889L29.1948 28.5508L37.3846 36.738L44.5891 32.5815C45.8518 31.8981 46.7102 30.5669 46.7102 29.0324C46.7102 27.5063 45.8644 26.1819 44.6128 25.4975Z" fill="#F6B60B"/>
<path d="M14.6276 13.9857C14.538 14.316 14.4905 14.6632 14.4905 15.0216V42.9769C14.4905 43.3353 14.538 43.6823 14.6291 44.0115L30.0458 28.596L14.6276 13.9857Z" fill="#5778C5"/>
<path d="M29.6437 28.999L37.3577 21.2863L20.5998 11.5704C19.9908 11.205 19.2796 10.9949 18.5194 10.9949C16.6573 10.9949 15.0866 12.262 14.6288 13.9812C14.6288 13.9826 14.6274 13.9841 14.6274 13.9856L29.6437 28.999Z" fill="#3BAD49"/>
</g>
<mask id="mask1_1110_1688" style="mask-type:luminance" maskUnits="userSpaceOnUse" x="0" y="0" width="190" height="57">
<path d="M0.529663 0.997559H189.529V56.9976H0.529663V0.997559Z" fill="white"/>
</mask>
<g mask="url(#mask1_1110_1688)">
<path d="M60.8237 18.9823C60.1295 18.5847 59.5832 18.0367 59.1856 17.338C58.7875 16.6397 58.5888 15.8685 58.5888 15.0235C58.5888 14.1795 58.7875 13.4079 59.1856 12.7099C59.5832 12.0115 60.1295 11.4632 60.8237 11.0653C61.518 10.6675 62.2872 10.4685 63.1318 10.4685C64.4393 10.4685 65.5148 10.9433 66.3594 11.8936L65.4218 12.807C65.1213 12.4498 64.7863 12.1821 64.4168 12.0033C64.0473 11.8246 63.623 11.735 63.1441 11.735C62.5514 11.735 62.0113 11.8711 61.5242 12.1432C61.037 12.4156 60.6511 12.8009 60.367 13.3003C60.0827 13.7997 59.9408 14.3743 59.9408 15.0235C59.9408 15.6733 60.0827 16.2479 60.367 16.7473C60.6511 17.2465 61.037 17.6326 61.5242 17.9041C62.0113 18.1765 62.5514 18.3126 63.1441 18.3126C64.1347 18.3126 64.9668 17.9024 65.6409 17.0823L66.6031 18.008C66.181 18.5033 65.6731 18.8892 65.0806 19.1651C64.4879 19.4407 63.8384 19.5791 63.1318 19.5791C62.2872 19.5791 61.518 19.3802 60.8237 18.9823Z" fill="white"/>
<path d="M68.1011 10.6634H69.441V14.8898H69.5139L72.9855 10.6634H74.6663V10.7365L70.9878 15.0967L74.8612 19.3111V19.3843H73.1072L69.5139 15.3892H69.441V19.3843H68.1011V10.6634Z" fill="white"/>
<path d="M81.097 15.901L80.1227 13.2272L79.7939 12.2286H79.7208L79.3919 13.2272L78.4177 15.901H81.097ZM78.9899 10.6634H80.5124L83.8132 19.3843H82.3395L81.5356 17.1432H77.9791L77.1751 19.3843H75.7014L78.9899 10.6634Z" fill="white"/>
<path d="M88.8559 15.499C88.3117 15.9779 87.6418 16.2175 86.8463 16.2175C86.3182 16.2175 85.8413 16.1101 85.415 15.8945C84.9887 15.6798 84.6537 15.3691 84.41 14.963C84.1663 14.5569 84.0446 14.078 84.0446 13.5259V10.6634H85.3966V13.2945C85.3966 13.8222 85.5511 14.2304 85.8597 14.5183C86.1681 14.8064 86.5821 14.951 87.102 14.951C87.8085 14.951 88.3931 14.6748 88.8559 14.1224V10.6634H90.1836V19.3843H88.8559V15.499Z" fill="white"/>
<path d="M96.7602 15.901L95.786 13.2272L95.4571 12.2286H95.384L95.0551 13.2272L94.0809 15.901H96.7602ZM94.6532 10.6634H96.1757L99.4765 19.3843H98.0028L97.1988 17.1432H93.6423L92.8384 19.3843H91.3647L94.6532 10.6634Z" fill="white"/>
<path d="M101.742 11.9302H99.2939V10.6634H105.518V11.9302H103.082V19.3843H101.742V11.9302Z" fill="white"/>
<path d="M110.195 18.1297C110.512 18.1297 110.792 18.0566 111.035 17.9106C111.279 17.7643 111.466 17.5715 111.596 17.3319C111.725 17.0926 111.79 16.8386 111.79 16.5706C111.79 16.3029 111.725 16.0493 111.596 15.8094C111.466 15.5701 111.279 15.3752 111.035 15.2248C110.792 15.0744 110.512 14.9995 110.195 14.9995H108.246V18.1297H110.195ZM106.906 10.6634H108.246V13.7693H110.097C110.641 13.7693 111.145 13.8808 111.608 14.1043C112.071 14.3278 112.44 14.6523 112.716 15.0785C112.992 15.5048 113.13 16.0022 113.13 16.5706C113.13 17.1391 112.992 17.6365 112.716 18.0627C112.44 18.489 112.071 18.8161 111.608 19.0431C111.145 19.2705 110.641 19.3843 110.097 19.3843H106.906V10.6634Z" fill="white"/>
<path d="M117.442 10.6634H118.769V15.4867L118.696 17.1675H118.769L122.679 10.6634H124.202V19.3843H122.874V14.439L122.947 12.7585H122.874L118.903 19.3843H117.442V10.6634Z" fill="white"/>
<path d="M126.826 19.0188C126.278 18.6452 125.903 18.0931 125.7 17.3623L126.93 16.8752C127.035 17.3298 127.24 17.6871 127.545 17.9472C127.849 18.207 128.209 18.3369 128.623 18.3369C129.07 18.3369 129.451 18.1967 129.768 17.9164C130.085 17.6364 130.243 17.2895 130.243 16.8752C130.243 16.6072 130.165 16.3617 130.012 16.1382C129.857 15.915 129.646 15.7386 129.378 15.6087C129.11 15.4787 128.818 15.4138 128.501 15.4138H127.783V14.2441H128.428C128.867 14.2441 129.232 14.1244 129.524 13.8848C129.817 13.6455 129.963 13.3228 129.963 12.9167C129.963 12.5595 129.827 12.2631 129.555 12.0273C129.282 11.7921 128.943 11.6742 128.538 11.6742C128.172 11.6742 127.864 11.7839 127.612 12.0033C127.36 12.2222 127.186 12.4823 127.088 12.7824L125.907 12.2953C126.077 11.8167 126.388 11.3924 126.839 11.0226C127.289 10.6531 127.859 10.4685 128.55 10.4685C129.077 10.4685 129.547 10.5721 129.957 10.7792C130.367 10.9861 130.687 11.2704 130.919 11.6318C131.15 11.9931 131.266 12.4012 131.266 12.8556C131.266 13.7002 130.896 14.3254 130.158 14.7315V14.8047C130.572 14.9913 130.909 15.2634 131.169 15.6206C131.428 15.9779 131.558 16.4123 131.558 16.924C131.558 17.4194 131.43 17.8699 131.175 18.276C130.919 18.6818 130.567 19.0004 130.121 19.2318C129.674 19.4632 129.175 19.5791 128.623 19.5791C127.973 19.5791 127.374 19.3922 126.826 19.0188Z" fill="white"/>
</g>
</svg>
