<svg width="168" height="57" viewBox="0 0 168 57" fill="none" xmlns="http://www.w3.org/2000/svg">
<path d="M154.189 0.997741H13.3486C12.8352 0.997741 12.328 0.997741 11.8159 1.00054C11.3873 1.00334 10.9621 1.01147 10.5294 1.01832C9.58932 1.02938 8.65145 1.11209 7.72394 1.26571C6.79773 1.42269 5.90054 1.71862 5.06271 2.14351C4.2259 2.572 3.46128 3.12878 2.7966 3.79364C2.12842 4.45663 1.57145 5.22296 1.14709 6.06316C0.72156 6.90169 0.426497 7.80025 0.27209 8.72781C0.116215 9.6542 0.0323377 10.5913 0.02121 11.5306C0.008218 11.9599 0.006846 12.3905 0 12.8198V45.1798C0.006846 45.6145 0.008218 46.0356 0.02121 46.4704C0.0323411 47.4097 0.116219 48.3468 0.27209 49.2731C0.42607 50.2012 0.721151 51.1003 1.14709 51.9391C1.57126 52.7766 2.12831 53.5398 2.7966 54.1991C3.45876 54.867 4.22387 55.4241 5.06271 55.8493C5.90054 56.2754 6.79763 56.5731 7.72394 56.7324C8.65161 56.8848 9.58938 56.9676 10.5294 56.98C10.9621 56.9895 11.3873 56.9949 11.8159 56.9949C12.3279 56.9977 12.8352 56.9977 13.3486 56.9977H154.189C154.692 56.9977 155.203 56.9977 155.706 56.9949C156.133 56.9949 156.57 56.9895 156.997 56.98C157.935 56.9682 158.871 56.8855 159.797 56.7324C160.726 56.5719 161.627 56.2743 162.468 55.8493C163.306 55.4239 164.071 54.8667 164.732 54.1991C165.399 53.5373 165.957 52.7746 166.387 51.9391C166.809 51.0997 167.102 50.2007 167.253 49.2731C167.41 48.3466 167.496 47.4098 167.513 46.4704C167.519 46.0356 167.519 45.6145 167.519 45.1798C167.53 44.6712 167.53 44.1653 167.53 43.6485V14.3483C167.53 13.8356 167.53 13.327 167.519 12.8198C167.519 12.3905 167.519 11.9599 167.513 11.5306C167.496 10.5911 167.41 9.65427 167.253 8.72776C167.101 7.80074 166.809 6.90225 166.387 6.06311C165.523 4.37902 164.152 3.00818 162.468 2.14339C161.627 1.71953 160.726 1.42368 159.797 1.26559C158.871 1.11128 157.935 1.02855 156.997 1.01812C156.57 1.01129 156.133 1.00309 155.706 1.00036C155.203 0.997559 154.692 0.997741 154.189 0.997741Z" fill="#A6A6A6"/>
<path d="M11.8228 55.7727C11.3962 55.7727 10.98 55.7672 10.5568 55.7577C9.68007 55.7463 8.80541 55.6699 7.93997 55.5293C7.133 55.3904 6.35126 55.1318 5.62054 54.7623C4.89652 54.3958 4.23615 53.9152 3.66474 53.339C3.08506 52.7696 2.60244 52.1092 2.23602 51.3839C1.86557 50.654 1.60919 49.8715 1.47583 49.0639C1.3318 48.196 1.25388 47.3185 1.24273 46.4389C1.23385 46.1436 1.22223 45.1605 1.22223 45.1605V12.8197C1.22223 12.8197 1.23461 11.8518 1.2428 11.5674C1.25347 10.6891 1.33094 9.81297 1.47454 8.94648C1.60815 8.13661 1.86473 7.3519 2.23538 6.61954C2.60045 5.89478 3.08039 5.23386 3.65658 4.66241C4.23212 4.08553 4.8946 3.6025 5.61985 3.23095C6.3489 2.86259 7.12916 2.60588 7.9345 2.46943C8.80278 2.32743 9.68047 2.25065 10.5602 2.23975L11.8235 2.22266H155.699L156.978 2.24044C157.85 2.2508 158.719 2.32689 159.58 2.46806C160.393 2.60622 161.181 2.86472 161.919 3.23505C163.372 3.98384 164.554 5.16848 165.3 6.62295C165.665 7.35027 165.917 8.12857 166.049 8.93144C166.194 9.80504 166.276 10.6881 166.292 11.5735C166.296 11.97 166.296 12.3959 166.296 12.8197C166.308 13.3447 166.308 13.8444 166.308 14.3482V43.6484C166.308 44.157 166.308 44.6533 166.296 45.1537C166.296 45.6089 166.296 46.026 166.291 46.4552C166.275 47.3249 166.195 48.1922 166.052 49.0501C165.921 49.8636 165.666 50.6522 165.296 51.3881C164.927 52.1055 164.447 52.7602 163.874 53.3281C163.302 53.9074 162.64 54.3908 161.915 54.7596C161.179 55.132 160.392 55.3915 159.58 55.5293C158.714 55.6707 157.839 55.747 156.963 55.7577C156.553 55.7672 156.123 55.7727 155.706 55.7727L154.189 55.7755L11.8228 55.7727Z" fill="black"/>
<path d="M34.6764 29.4186C34.6915 28.25 35.0019 27.1043 35.5787 26.088C36.1556 25.0716 36.9801 24.2177 37.9756 23.6057C37.3432 22.7024 36.5089 21.9591 35.5389 21.4348C34.569 20.9104 33.4901 20.6194 32.388 20.5849C30.0371 20.3382 27.7579 21.9917 26.5599 21.9917C25.3388 21.9917 23.4943 20.6094 21.508 20.6503C20.2233 20.6918 18.9712 21.0654 17.8738 21.7347C16.7764 22.404 15.871 23.3461 15.246 24.4693C12.5384 29.1571 14.558 36.0466 17.1516 39.8358C18.4493 41.6913 19.9659 43.7639 21.9503 43.6904C23.8922 43.6099 24.6175 42.4522 26.9615 42.4522C29.2837 42.4522 29.9642 43.6904 31.9889 43.6437C34.0726 43.6099 35.3855 41.78 36.6376 39.9069C37.57 38.5848 38.2874 37.1236 38.7634 35.5774C37.5528 35.0654 36.5197 34.2083 35.7929 33.1131C35.0662 32.0179 34.6779 30.733 34.6764 29.4186Z" fill="white"/>
<path d="M30.8522 18.0929C31.9883 16.729 32.5481 14.976 32.4125 13.2061C30.6767 13.3884 29.0734 14.2179 27.9219 15.5295C27.3589 16.1702 26.9277 16.9157 26.653 17.7231C26.3782 18.5306 26.2653 19.3843 26.3207 20.2355C27.1889 20.2444 28.0478 20.0562 28.8327 19.6851C29.6177 19.314 30.3082 18.7696 30.8522 18.0929Z" fill="white"/>
<path d="M59.2232 38.9931H52.5964L51.005 43.6921H48.1982L54.4749 26.3069H57.3911L63.6679 43.6921H60.8132L59.2232 38.9931ZM53.2827 36.8247H58.5355L55.9461 29.1985H55.8736L53.2827 36.8247Z" fill="white"/>
<path d="M77.2236 37.3553C77.2236 41.2942 75.1154 43.8249 71.9339 43.8249C71.128 43.867 70.3265 43.6814 69.6212 43.2892C68.9159 42.897 68.3353 42.3141 67.9458 41.6073H67.8856V47.8854H65.2839V31.017H67.8023V33.1252H67.8501C68.2575 32.4218 68.8479 31.8419 69.5586 31.4473C70.2693 31.0528 71.0736 30.8582 71.8861 30.8844C75.103 30.8844 77.2236 33.4274 77.2236 37.3553ZM74.5493 37.3553C74.5493 34.7891 73.2232 33.102 71.1997 33.102C69.2118 33.102 67.8747 34.8247 67.8747 37.3553C67.8747 39.9092 69.2118 41.6196 71.1997 41.6196C73.2232 41.6196 74.5493 39.9448 74.5493 37.3553Z" fill="white"/>
<path d="M91.1744 37.3553C91.1744 41.2942 89.0662 43.8248 85.8847 43.8248C85.0788 43.867 84.2773 43.6814 83.572 43.2892C82.8667 42.897 82.2861 42.3141 81.8966 41.6072H81.8364V47.8854H79.2347V31.017H81.753V33.1252H81.8009C82.2082 32.4218 82.7986 31.8419 83.5093 31.4473C84.22 31.0528 85.0244 30.8582 85.8368 30.8844C89.0539 30.8844 91.1744 33.4274 91.1744 37.3553ZM88.5001 37.3553C88.5001 34.7891 87.174 33.102 85.1505 33.102C83.1626 33.102 81.8255 34.8246 81.8255 37.3553C81.8255 39.9092 83.1626 41.6196 85.1505 41.6196C87.174 41.6196 88.5001 39.9448 88.5001 37.3553Z" fill="white"/>
<path d="M100.395 38.8482C100.587 40.5722 102.262 41.7042 104.551 41.7042C106.744 41.7042 108.322 40.5722 108.322 39.0177C108.322 37.6683 107.37 36.8603 105.117 36.3066L102.864 35.7638C99.6714 34.9927 98.1894 33.4997 98.1894 31.0771C98.1894 28.0774 100.803 26.0171 104.515 26.0171C108.189 26.0171 110.707 28.0774 110.792 31.0771H108.166C108.008 29.3421 106.574 28.2948 104.478 28.2948C102.383 28.2948 100.948 29.3544 100.948 30.8966C100.948 32.1257 101.864 32.8489 104.105 33.4026L106.021 33.8729C109.588 34.7165 111.07 36.1493 111.07 38.6922C111.07 41.9448 108.479 43.9819 104.358 43.9819C100.503 43.9819 97.8995 41.9926 97.7313 38.8481L100.395 38.8482Z" fill="white"/>
<path d="M116.685 28.0173V31.0169H119.095V33.0773H116.685V40.065C116.685 41.1505 117.167 41.6564 118.227 41.6564C118.513 41.6514 118.799 41.6313 119.083 41.5962V43.6442C118.606 43.7333 118.122 43.7736 117.638 43.7646C115.071 43.7646 114.071 42.8007 114.071 40.3425V33.0773H112.228V31.0169H114.071V28.0173H116.685Z" fill="white"/>
<path d="M120.491 37.3552C120.491 33.3671 122.84 30.8611 126.503 30.8611C130.178 30.8611 132.515 33.3671 132.515 37.3552C132.515 41.3543 130.19 43.8494 126.503 43.8494C122.817 43.8494 120.491 41.3542 120.491 37.3552ZM129.864 37.3552C129.864 34.6195 128.611 33.0048 126.503 33.0048C124.394 33.0048 123.142 34.6318 123.142 37.3552C123.142 40.1019 124.394 41.7043 126.503 41.7043C128.611 41.7043 129.864 40.1019 129.864 37.3552Z" fill="white"/>
<path d="M134.66 31.0169H137.142V33.1743H137.202C137.37 32.5005 137.765 31.9051 138.32 31.488C138.875 31.071 139.557 30.8578 140.251 30.8843C140.551 30.8832 140.85 30.9158 141.142 30.9814V33.415C140.764 33.2993 140.369 33.2462 139.973 33.2577C139.595 33.2424 139.219 33.309 138.869 33.4531C138.519 33.5971 138.205 33.8151 137.947 34.0922C137.689 34.3692 137.495 34.6987 137.377 35.0581C137.258 35.4174 137.219 35.7981 137.262 36.1739V43.6921H134.66L134.66 31.0169Z" fill="white"/>
<path d="M153.138 39.9693C152.788 42.2703 150.547 43.8494 147.68 43.8494C143.993 43.8494 141.704 41.3788 141.704 37.4154C141.704 33.4396 144.005 30.8611 147.571 30.8611C151.078 30.8611 153.283 33.2701 153.283 37.1132V38.0046H144.331V38.1619C144.289 38.6283 144.348 39.0983 144.502 39.5404C144.656 39.9826 144.903 40.3869 145.225 40.7265C145.548 41.0661 145.939 41.3331 146.372 41.5099C146.806 41.6868 147.272 41.7693 147.74 41.7521C148.355 41.8097 148.972 41.6673 149.5 41.3461C150.027 41.0249 150.437 40.542 150.668 39.9693L153.138 39.9693ZM144.343 36.1863H150.68C150.703 35.7668 150.64 35.3471 150.493 34.9534C150.346 34.5597 150.12 34.2006 149.828 33.8985C149.536 33.5964 149.185 33.358 148.797 33.1981C148.408 33.0381 147.991 32.9603 147.571 32.9693C147.147 32.9668 146.727 33.0482 146.335 33.2088C145.943 33.3694 145.587 33.6061 145.287 33.9052C144.986 34.2043 144.749 34.5599 144.587 34.9514C144.425 35.3429 144.342 35.7626 144.343 36.1863Z" fill="white"/>
<path d="M51.4336 16.7524H52.5506C52.7429 16.7763 52.938 16.7602 53.1238 16.705C53.3095 16.6498 53.4818 16.5567 53.6298 16.4316C53.7777 16.3064 53.8982 16.152 53.9835 15.9781C54.0688 15.8041 54.1172 15.6144 54.1256 15.4208C54.1256 14.6504 53.5459 14.1527 52.5629 14.1527C52.3659 14.1252 52.1654 14.1374 51.9732 14.1886C51.781 14.2399 51.601 14.3291 51.4439 14.4511C51.2867 14.5731 51.1556 14.7253 51.0583 14.8987C50.961 15.0722 50.8994 15.2634 50.8771 15.4611H49.6508C49.6719 15.1023 49.7666 14.7516 49.9291 14.431C50.0916 14.1104 50.3183 13.8267 50.5952 13.5975C50.8721 13.3683 51.1932 13.1986 51.5386 13.0989C51.8839 12.9992 52.2461 12.9716 52.6025 13.0179C54.2472 13.0179 55.4053 13.9387 55.4053 15.2642C55.4092 15.7083 55.2606 16.1402 54.9844 16.4879C54.7082 16.8357 54.3211 17.0781 53.8877 17.1749V17.2733C54.4015 17.2961 54.8854 17.5214 55.2336 17.8999C55.5817 18.2784 55.7659 18.7794 55.7457 19.2933C55.7077 19.6628 55.5963 20.0209 55.4181 20.3467C55.2398 20.6726 54.9984 20.9596 54.7078 21.1909C54.4172 21.4222 54.0834 21.5932 53.7259 21.6938C53.3684 21.7944 52.9944 21.8226 52.6258 21.7768C52.2565 21.8272 51.8808 21.8026 51.5211 21.7047C51.1615 21.6068 50.8252 21.4374 50.5324 21.2067C50.2396 20.9761 49.9962 20.6888 49.8168 20.3621C49.6374 20.0353 49.5256 19.6758 49.4881 19.305H50.7336C50.8088 20.1041 51.543 20.6196 52.6258 20.6196C53.7086 20.6196 54.4154 20.0406 54.4154 19.2243C54.4154 18.3965 53.7496 17.8865 52.5861 17.8865H51.4336V16.7524Z" fill="white"/>
<path d="M57.1608 19.7916C57.1608 18.6569 58.0071 18.0027 59.5055 17.9097L61.2131 17.8113V17.2671C61.2131 16.6013 60.7742 16.2253 59.9225 16.2253C59.228 16.2253 58.7481 16.4803 58.6086 16.926H57.4041C57.5313 15.8432 58.5512 15.1487 59.9813 15.1487C61.5617 15.1487 62.4532 15.9355 62.4532 17.2671V21.5745H61.2541V20.6885H61.1557C60.9559 21.0063 60.6753 21.2654 60.3427 21.4393C60.01 21.6132 59.6371 21.6957 59.2621 21.6783C58.9975 21.7059 58.73 21.6776 58.4769 21.5954C58.2239 21.5133 57.9908 21.379 57.7929 21.2012C57.5949 21.0235 57.4363 20.8062 57.3275 20.5634C57.2186 20.3206 57.1618 20.0577 57.1608 19.7916ZM61.2131 19.253V18.7259L59.6736 18.8244C58.8054 18.8825 58.4117 19.1778 58.4117 19.7335C58.4117 20.3009 58.9039 20.6311 59.5807 20.6311C59.779 20.6512 59.9793 20.6311 60.1697 20.5722C60.3601 20.5133 60.5368 20.4167 60.6891 20.2881C60.8414 20.1595 60.9662 20.0016 61.0563 19.8238C61.1463 19.646 61.1996 19.4518 61.2131 19.253Z" fill="white"/>
<path d="M65.7549 16.3175V21.5744H64.5107V15.2703H68.6616V16.3175L65.7549 16.3175Z" fill="white"/>
<path d="M76.2016 18.4196C76.2016 20.4225 75.1885 21.6783 73.5971 21.6783C73.2064 21.7049 72.8163 21.6195 72.4726 21.4319C72.1289 21.2443 71.8459 20.9624 71.657 20.6194H71.5586V23.6703H70.3145V15.2703H71.5121V16.3121H71.6051C71.7974 15.9571 72.084 15.6622 72.4334 15.4599C72.7827 15.2576 73.1812 15.1558 73.5848 15.1657C75.1885 15.1657 76.2016 16.4159 76.2016 18.4196ZM74.9219 18.4196C74.9219 17.0879 74.2916 16.2833 73.2375 16.2833C72.1903 16.2833 71.5354 17.105 71.5354 18.425C71.5354 19.7389 72.1902 20.5613 73.232 20.5613C74.2916 20.5613 74.9219 19.7567 74.9219 18.4196Z" fill="white"/>
<path d="M77.8586 23.8323V22.7611C77.9932 22.7782 78.1289 22.786 78.2646 22.7843C78.5296 22.804 78.7926 22.725 79.0031 22.5627C79.2135 22.4003 79.3566 22.1659 79.4048 21.9045L79.4978 21.5976L77.2159 15.2703H78.5708L80.1513 20.2776H80.2498L81.8248 15.2703H83.1441L80.7939 21.8348C80.2553 23.3688 79.6592 23.861 78.374 23.861C78.2701 23.861 77.9748 23.8494 77.8586 23.8323Z" fill="white"/>
<path d="M84.1135 19.7854H85.3521C85.4738 20.3412 85.9947 20.631 86.7234 20.631C87.552 20.631 88.0605 20.266 88.0605 19.6986C88.0605 19.0909 87.6039 18.801 86.7234 18.801H85.7801V17.8344H86.707C87.459 17.8344 87.8418 17.5453 87.8418 17.0182C87.8418 16.5554 87.4713 16.202 86.707 16.202C86.0111 16.202 85.5025 16.4974 85.4218 16.995H84.2228C84.3125 16.4232 84.623 15.9093 85.0875 15.5641C85.5521 15.2188 86.1336 15.0696 86.707 15.1486C88.2055 15.1486 89.0627 15.8261 89.0627 16.8911C89.0697 17.1877 88.9747 17.4777 88.7935 17.7126C88.6123 17.9475 88.356 18.1131 88.0674 18.1817V18.2802C88.411 18.3245 88.7264 18.4934 88.9537 18.7549C89.181 19.0164 89.3045 19.3522 89.3006 19.6986C89.3006 20.897 88.2807 21.6899 86.7234 21.6899C85.3467 21.6899 84.2283 21.0589 84.1135 19.7854Z" fill="white"/>
<path d="M91.0923 21.5744V15.2703H92.3255V19.6063H92.4239L95.3292 15.2703H96.5624V21.5744H95.3292V17.2151H95.2362L92.3255 21.5744L91.0923 21.5744Z" fill="white"/>
<path d="M103.356 16.3177H101.371V21.5745H100.125V16.3177H98.14V15.2705H103.356V16.3177Z" fill="white"/>
<path d="M110.058 19.8724C109.888 20.4486 109.522 20.9468 109.022 21.2802C108.523 21.6135 107.922 21.7608 107.325 21.6963C106.91 21.7072 106.497 21.6277 106.115 21.4631C105.734 21.2986 105.393 21.053 105.116 20.7434C104.839 20.4338 104.632 20.0676 104.511 19.6703C104.389 19.2729 104.356 18.8539 104.413 18.4423C104.358 18.0295 104.392 17.6096 104.513 17.2111C104.634 16.8125 104.839 16.4446 105.115 16.1323C105.39 15.82 105.73 15.5706 106.11 15.4009C106.491 15.2312 106.903 15.1452 107.319 15.1488C109.074 15.1488 110.133 16.3472 110.133 18.3268V18.7609H105.682V18.8306C105.662 19.062 105.691 19.295 105.766 19.5145C105.842 19.7341 105.963 19.9354 106.121 20.1055C106.279 20.2756 106.471 20.4107 106.685 20.5022C106.898 20.5936 107.128 20.6395 107.36 20.6366C107.658 20.6722 107.959 20.6185 108.226 20.4824C108.493 20.3464 108.713 20.134 108.859 19.8724L110.058 19.8724ZM105.682 17.8408H108.864C108.88 17.6293 108.851 17.4169 108.78 17.2172C108.709 17.0174 108.597 16.8348 108.451 16.681C108.305 16.5272 108.128 16.4057 107.932 16.3242C107.737 16.2426 107.526 16.203 107.314 16.2077C107.099 16.2048 106.885 16.245 106.686 16.3261C106.486 16.4071 106.305 16.5273 106.153 16.6795C106.001 16.8318 105.881 17.013 105.8 17.2124C105.719 17.4119 105.679 17.6256 105.682 17.8408Z" fill="white"/>
<path d="M115.333 15.2703H118.175C119.408 15.2703 120.131 15.8951 120.131 16.8733C120.133 17.1837 120.029 17.4853 119.835 17.7277C119.641 17.9701 119.37 18.1386 119.066 18.2049V18.3033C119.434 18.3266 119.78 18.4904 120.031 18.7608C120.281 19.0313 120.419 19.3878 120.414 19.7567C120.414 20.8566 119.587 21.5743 118.204 21.5743H115.333V15.2703ZM116.566 16.2252V17.8576H117.799C118.551 17.8576 118.91 17.5685 118.91 17.0353C118.91 16.5438 118.597 16.2252 117.937 16.2252L116.566 16.2252ZM116.566 18.7723V20.6194H118.041C118.777 20.6194 119.17 20.2947 119.17 19.6986C119.17 19.0677 118.725 18.7723 117.885 18.7723L116.566 18.7723Z" fill="white"/>
</svg>
