<svg width="190" height="57" viewBox="0 0 190 57" fill="none" xmlns="http://www.w3.org/2000/svg">
<g clip-path="url(#clip0_1110_1715)">
<path d="M181.969 56.9976H8.08917C3.88917 56.9976 0.529175 53.6376 0.529175 49.4376V8.55756C0.529175 4.35756 3.88917 0.997559 8.08917 0.997559H181.969C186.169 0.997559 189.529 4.35756 189.529 8.55756V49.4376C189.529 53.6376 186.169 56.9976 181.969 56.9976Z" fill="#010100"/>
<path d="M181.549 2.25756C185.189 2.25756 188.269 4.91756 188.269 8.13756V49.9976C188.269 53.2176 185.329 55.8776 181.549 55.8776H8.50917C4.86917 55.8776 1.78917 53.2176 1.78917 49.9976V8.13756C1.78917 4.91756 4.72917 2.25756 8.50917 2.25756H181.549ZM181.549 0.997559H8.50917C4.16917 0.997559 0.529175 4.21756 0.529175 8.13756V49.9976C0.529175 53.7776 4.16917 56.9976 8.50917 56.9976H181.409C185.889 56.9976 189.389 53.7776 189.389 49.8576V8.13756C189.529 4.21756 185.889 0.997559 181.549 0.997559Z" fill="#98A1AC"/>
<path fill-rule="evenodd" clip-rule="evenodd" d="M30.9092 47.8975C22.3692 47.8975 18.0292 47.8975 15.3692 45.2375C12.7092 42.5775 12.7092 38.2375 12.7092 29.6975V28.1575C12.7092 19.6175 12.7092 15.2775 15.3692 12.6175C18.0292 9.95752 22.3692 9.95752 30.9092 9.95752H32.4492C40.9892 9.95752 45.3292 9.95752 47.9892 12.6175C50.6492 15.2775 50.6492 19.6175 50.6492 28.1575V29.6975C50.6492 38.2375 50.6492 42.5775 47.9892 45.2375C45.3292 47.8975 40.9892 47.8975 32.4492 47.8975H30.9092Z" fill="#3B6DAF"/>
<path d="M34.5492 33.3375C33.5692 33.0575 32.8692 32.2175 32.8692 31.0975V18.7775C32.8692 17.5175 33.9892 16.6775 35.1092 16.9575L42.3892 18.7775C43.3692 19.0575 44.0692 19.8975 44.0692 21.0175V33.3375C44.0692 34.5975 42.9492 35.4375 41.8292 35.1575L34.5492 33.3375Z" fill="white"/>
<path d="M20.8292 39.0775C19.8492 38.7975 19.1492 37.9575 19.1492 36.8375V24.5175C19.1492 23.2575 20.2692 22.4175 21.3892 22.6975L28.6692 24.5175C29.6492 24.7975 30.3492 25.6375 30.3492 26.7575V39.0775C30.3492 40.3375 29.2292 41.1775 28.1092 40.8975L20.8292 39.0775Z" fill="white"/>
<path d="M27.6892 36.2775C26.7092 35.9975 26.0092 35.1575 26.0092 34.0375V21.7175C26.0092 20.4575 27.1292 19.6175 28.2492 19.8975L35.5292 21.7175C36.5092 21.9975 37.2092 22.8375 37.2092 23.9575V36.2775C37.2092 37.5375 36.0892 38.3775 34.9692 38.0975L27.6892 36.2775Z" fill="white"/>
<path d="M32.4492 37.3974C32.1692 37.2574 31.8892 36.9774 31.8892 36.6974L31.6092 27.3174C31.4692 26.0574 30.6292 25.0774 29.6492 24.7974H29.5092V24.9374C29.7892 25.0774 30.3492 25.7774 30.3492 26.7574V36.8374L32.4492 37.3974Z" fill="#3B6DAF"/>
<path d="M39.4492 34.5976C39.1692 34.4576 38.8892 34.1776 38.8892 33.8976L38.6092 24.5176C38.4692 23.2576 37.6292 22.2776 36.6492 21.9976H36.5092V22.1376C36.7892 22.2776 37.3492 22.9776 37.3492 23.9576V34.0376L39.4492 34.5976Z" fill="#3B6DAF"/>
<path d="M68.5692 38.6576C71.0892 37.9576 72.7692 36.1376 72.7692 33.6176C72.7692 30.5376 70.2492 28.2976 66.7492 28.2976H60.5892V44.9576H63.3892V38.7976H65.4892L69.9692 44.9576H73.3292L68.5692 38.6576ZM66.7492 30.8176C68.5692 30.8176 69.8292 31.9376 69.8292 33.4776C69.8292 35.0176 68.5692 36.1376 66.7492 36.1376H63.3892V30.8176H66.7492Z" fill="white"/>
<path d="M79.7692 45.2377C81.3092 45.2377 82.7092 44.3977 83.4092 43.1377L83.9692 44.9577H86.0692V32.6377H83.2692V39.7777C83.2692 41.5977 82.1492 42.7177 80.4692 42.7177C78.9292 42.7177 77.8092 41.4577 77.8092 39.7777V32.6377H75.0092V40.0577C75.0092 42.9977 77.1092 45.2377 79.7692 45.2377Z" fill="white"/>
<path d="M94.7492 45.2377C97.9692 45.2377 100.489 43.4177 100.489 40.4777C100.489 37.1177 97.6892 36.1377 95.3092 35.2977C93.4892 34.7377 91.8092 34.1777 91.8092 32.6377C91.8092 31.3777 93.0692 30.6777 94.4692 30.6777C96.0092 30.6777 96.9892 31.5177 97.6892 32.7777L100.349 32.3577C99.5092 29.6977 97.2692 28.1577 94.3292 28.1577C91.2492 28.1577 88.8692 29.9777 88.8692 32.9177C88.8692 36.2777 91.6692 37.2577 94.0492 37.9577C95.8692 38.5177 97.5492 39.0777 97.5492 40.6177C97.5492 41.8777 96.2892 42.7177 94.7492 42.7177C92.9292 42.7177 91.9492 41.8777 90.9692 40.1977L88.1692 40.6177C89.1492 43.4177 91.6692 45.2377 94.7492 45.2377Z" fill="white"/>
<path d="M108.049 42.5777C107.069 42.5777 106.649 42.1577 106.649 41.1777V35.0177H110.289V32.6377H106.649V29.1377H104.549L103.849 32.6377H101.749V35.0177H103.849V41.1777C103.849 43.5577 105.249 44.9577 108.049 44.9577H110.429L110.709 42.5777H108.049Z" fill="white"/>
<path d="M118.549 45.2377C122.469 45.2377 125.129 42.5777 125.129 38.7977C125.129 35.0177 122.329 32.3577 118.549 32.3577C114.629 32.3577 111.969 35.0177 111.969 38.7977C111.969 42.5777 114.629 45.2377 118.549 45.2377ZM118.549 42.7177C116.309 42.7177 114.769 41.1777 114.769 38.7977C114.769 36.4177 116.309 34.8777 118.549 34.8777C120.789 34.8777 122.329 36.4177 122.329 38.7977C122.189 41.1777 120.789 42.7177 118.549 42.7177Z" fill="white"/>
<path d="M130.309 44.9577V37.6777C130.309 36.1377 131.009 35.2977 132.689 35.2977H134.229L133.949 32.6377H133.529C132.129 32.6377 131.009 33.0577 130.169 34.4577L129.609 32.6377H127.509V44.9577H130.309Z" fill="white"/>
<path d="M147.809 38.6577C147.809 35.1577 145.149 32.3577 141.369 32.3577C137.589 32.3577 134.929 35.1577 134.929 38.7977C134.929 42.4377 137.589 45.2377 141.369 45.2377C143.889 45.2377 146.409 43.9777 147.389 41.7377L144.869 41.3177C144.309 42.1577 143.189 42.8577 141.649 42.8577C139.549 42.8577 138.149 41.5977 137.869 39.6377H147.809C147.809 39.2177 147.809 38.9377 147.809 38.6577ZM141.369 34.7377C143.049 34.7377 144.449 35.8577 144.869 37.3977H138.009C138.429 35.8577 139.689 34.7377 141.369 34.7377Z" fill="white"/>
<path d="M59.0492 20.4575H59.8892C60.0292 20.1775 60.1692 19.7575 60.3092 19.3375C60.4492 18.9175 60.5892 18.3575 60.7292 17.7975C60.8692 17.2375 60.8692 16.6775 61.0092 16.1175C61.0092 15.5575 61.1492 14.8575 61.1492 14.2975V12.4775H66.8892V20.4575H67.8692V23.6775H66.7492V21.4375H60.3092V23.6775H59.1892V20.4575H59.0492ZM65.6292 20.4575V13.4575H62.2692V14.7175C62.2692 15.2775 62.2692 15.8375 62.1292 16.3975C62.1292 16.9575 61.9892 17.5175 61.8492 17.9375C61.7092 18.4975 61.7092 18.9175 61.5692 19.3375C61.4292 19.7575 61.2892 20.0375 61.1492 20.3175H65.6292V20.4575Z" fill="white"/>
<path d="M71.6492 21.5775C71.0892 21.5775 70.6692 21.4375 70.2492 21.2975C69.8292 21.1575 69.5492 20.8775 69.2692 20.5975C68.9892 20.3175 68.8492 19.8975 68.7092 19.4775C68.5692 19.0575 68.5692 18.6375 68.5692 18.2175C68.5692 17.7975 68.5692 17.2375 68.7092 16.8175C68.8492 16.3975 68.9892 15.9775 69.2692 15.6975C69.5492 15.4175 69.8292 15.1375 70.2492 14.9975C70.6692 14.8575 71.0892 14.7175 71.6492 14.7175C72.2092 14.7175 72.6292 14.8575 73.0492 14.9975C73.4692 15.1375 73.7492 15.4175 74.0292 15.6975C74.3092 15.9775 74.4492 16.3975 74.5892 16.8175C74.7292 17.2375 74.7292 17.6575 74.7292 18.2175C74.7292 18.6375 74.7292 19.1975 74.5892 19.4775C74.4492 19.8975 74.3092 20.1775 74.0292 20.5975C73.7492 20.8775 73.4692 21.1575 73.0492 21.2975C72.6292 21.4375 72.2092 21.5775 71.6492 21.5775ZM71.6492 20.5975C71.9292 20.5975 72.2092 20.5975 72.4892 20.4575C72.7692 20.3175 72.9092 20.1775 73.1892 20.0375C73.3292 19.8975 73.4692 19.6175 73.6092 19.3375C73.7492 19.0575 73.7492 18.6375 73.7492 18.3575C73.7492 17.9375 73.7492 17.6575 73.6092 17.3775C73.4692 17.0975 73.3292 16.8175 73.1892 16.6775C73.0492 16.5375 72.7692 16.2575 72.4892 16.2575C72.2092 16.1175 71.9292 16.1175 71.6492 16.1175C71.3692 16.1175 71.0892 16.1175 70.8092 16.2575C70.5292 16.3975 70.3892 16.5375 70.1092 16.6775C69.9692 16.8175 69.8292 17.0975 69.6892 17.3775C69.5492 17.6575 69.5492 18.0775 69.5492 18.3575C69.5492 18.7775 69.5492 19.0575 69.6892 19.3375C69.8292 19.6175 69.9692 19.8975 70.1092 20.0375C70.2492 20.1775 70.5292 20.4575 70.8092 20.4575C71.0892 20.5975 71.3692 20.5975 71.6492 20.5975Z" fill="white"/>
<path d="M78.6492 21.5775C78.0892 21.5775 77.6692 21.4375 77.3892 21.2975C76.9692 21.1575 76.6892 20.8775 76.4092 20.5975C76.1292 20.3175 75.9892 19.8975 75.8492 19.6175C75.7092 19.3375 75.7092 18.7775 75.7092 18.2175C75.7092 17.7975 75.7092 17.2375 75.8492 16.8175C75.9892 16.3975 76.1292 15.9775 76.4092 15.6975C76.6892 15.4175 76.9692 15.1375 77.3892 14.9975C77.8092 14.8575 78.2292 14.7175 78.7892 14.7175C79.2092 14.7175 79.4892 14.7175 79.7692 14.8575C80.0492 14.9975 80.3292 15.1375 80.6092 15.2775C80.8892 15.4175 81.0292 15.6975 81.1692 15.9775C81.3092 16.2575 81.4492 16.5375 81.4492 16.9575H80.3292C80.1892 16.5375 80.0492 16.2575 79.7692 15.9775C79.4892 15.6975 79.2092 15.6975 78.6492 15.6975C78.2292 15.6975 77.9492 15.8375 77.6692 15.9775C77.3892 16.1175 77.2492 16.2575 77.1092 16.5375C76.9692 16.8175 76.8292 17.0975 76.8292 17.3775C76.8292 17.6575 76.6892 17.9375 76.6892 18.3575C76.6892 18.6375 76.6892 18.9175 76.8292 19.1975C76.9692 19.4775 76.9692 19.7575 77.1092 19.8975C77.2492 20.1775 77.3892 20.3175 77.6692 20.4575C77.9492 20.5975 78.2292 20.5975 78.5092 20.5975C79.0692 20.5975 79.4892 20.4575 79.7692 20.1775C80.0492 19.8975 80.1892 19.4775 80.3292 19.0575H81.4492C81.3092 19.8975 81.0292 20.4575 80.6092 20.8775C80.1892 21.2975 79.4892 21.5775 78.6492 21.5775Z" fill="white"/>
<path d="M84.2491 15.9776H81.8691V14.9976H87.6091V15.9776H85.2291V21.4376H84.1091V15.9776H84.2491Z" fill="white"/>
<path d="M89.1492 23.9576C89.0092 23.9576 88.8692 23.9576 88.7292 23.9576C88.5892 23.9576 88.4492 23.9576 88.3092 23.8176V22.8376C88.4492 22.8376 88.4492 22.8376 88.5892 22.9776C88.7292 22.9776 88.8692 22.9776 88.8692 22.9776C89.1492 22.9776 89.2892 22.9776 89.4292 22.8376C89.5692 22.6976 89.7092 22.5576 89.7092 22.4176L90.1292 21.2976L87.8892 14.9976H89.1492L90.9692 20.3176L92.7892 14.9976H93.9092L91.1092 22.2776C90.9692 22.5576 90.8292 22.8376 90.6892 23.1176C90.5492 23.3976 90.4092 23.5376 90.2692 23.6776C90.1292 23.8176 89.9892 23.9576 89.8492 23.9576C89.5692 23.9576 89.4292 23.9576 89.1492 23.9576Z" fill="white"/>
<path d="M94.7492 14.9976H100.069V21.4376H98.9492V15.9776H95.8692V21.4376H94.7492V14.9976Z" fill="white"/>
<path d="M101.609 14.9976H102.729V17.5176H105.949V14.9976H107.069V21.4376H105.949V18.4976H102.729V21.4376H101.609V14.9976Z" fill="white"/>
<path d="M111.409 21.5775C110.849 21.5775 110.429 21.4375 110.009 21.2975C109.589 21.1575 109.309 20.8775 109.029 20.5975C108.749 20.3175 108.609 19.8975 108.469 19.4775C108.329 19.0575 108.329 18.6375 108.329 18.2175C108.329 17.7975 108.329 17.2375 108.469 16.8175C108.609 16.3975 108.749 15.9775 109.029 15.6975C109.309 15.4175 109.589 15.1375 110.009 14.9975C110.429 14.8575 110.849 14.7175 111.409 14.7175C111.969 14.7175 112.389 14.8575 112.809 14.9975C113.229 15.1375 113.509 15.4175 113.789 15.6975C114.069 15.9775 114.209 16.3975 114.349 16.8175C114.489 17.2375 114.489 17.6575 114.489 18.2175C114.489 18.6375 114.489 19.1975 114.349 19.4775C114.209 19.8975 114.069 20.1775 113.789 20.5975C113.509 20.8775 113.229 21.1575 112.809 21.2975C112.389 21.4375 111.969 21.5775 111.409 21.5775ZM111.409 20.5975C111.689 20.5975 111.969 20.5975 112.249 20.4575C112.529 20.3175 112.669 20.1775 112.949 20.0375C113.089 19.8975 113.229 19.6175 113.369 19.3375C113.509 19.0575 113.509 18.6375 113.509 18.3575C113.509 17.9375 113.509 17.6575 113.369 17.3775C113.229 17.0975 113.089 16.8175 112.949 16.6775C112.809 16.5375 112.529 16.2575 112.249 16.2575C111.969 16.1175 111.689 16.1175 111.409 16.1175C111.129 16.1175 110.849 16.1175 110.569 16.2575C110.289 16.3975 110.149 16.5375 109.869 16.6775C109.729 16.8175 109.589 17.0975 109.449 17.3775C109.309 17.6575 109.309 18.0775 109.309 18.3575C109.309 18.7775 109.309 19.0575 109.449 19.3375C109.589 19.6175 109.729 19.8975 109.869 20.0375C110.009 20.1775 110.289 20.4575 110.569 20.4575C110.849 20.5975 111.129 20.5975 111.409 20.5975Z" fill="white"/>
<path d="M119.249 14.9976H122.329C122.609 14.9976 122.889 14.9976 123.169 14.9976C123.449 14.9976 123.729 15.1376 123.869 15.2776C124.009 15.4176 124.289 15.5576 124.429 15.6976C124.569 15.8376 124.569 16.1176 124.569 16.5376C124.569 16.8176 124.429 17.2376 124.289 17.3776C124.149 17.6576 123.869 17.7976 123.589 17.9376C124.009 18.0776 124.289 18.2176 124.429 18.4976C124.709 18.7776 124.709 19.0576 124.709 19.6176C124.709 19.8976 124.709 20.1776 124.569 20.3176C124.429 20.5976 124.289 20.7376 124.149 20.8776C124.009 21.0176 123.729 21.1576 123.589 21.2976C123.309 21.4376 123.029 21.4376 122.749 21.4376H119.249V14.9976ZM122.189 17.6576C122.609 17.6576 123.029 17.5176 123.169 17.3776C123.309 17.2376 123.449 16.9576 123.449 16.6776C123.449 16.3976 123.309 16.2576 123.169 16.1176C123.029 15.9776 122.609 15.8376 122.189 15.8376H120.369V17.5176H122.189V17.6576ZM122.609 20.5976C122.889 20.5976 123.169 20.4576 123.449 20.3176C123.589 20.1776 123.729 19.8976 123.729 19.6176C123.729 19.3376 123.589 19.0576 123.449 18.9176C123.309 18.7776 122.889 18.6376 122.469 18.6376H120.369V20.5976H122.609Z" fill="white"/>
</g>
<defs>
<clipPath id="clip0_1110_1715">
<rect width="189" height="56" fill="white" transform="translate(0.529175 0.997559)"/>
</clipPath>
</defs>
</svg>
