<svg width="113" height="28" viewBox="0 0 113 28" fill="none" xmlns="http://www.w3.org/2000/svg">
<path d="M106.087 7.72557C103.976 7.72557 102.365 8.50082 101.227 10.0513L101.227 2.54736L98.2289 2.54736L98.2289 21.9288L101.227 21.9288L101.227 19.9356C102.365 21.5199 103.971 22.2897 106.087 22.2897C108.002 22.2897 109.613 21.5973 110.973 20.1853C112.333 18.7733 113 17.0287 113 15.0071C113 12.9583 112.334 11.242 110.973 9.82999C109.611 8.41795 108.002 7.72556 106.087 7.72557ZM102.477 18.1932C101.644 17.3351 101.231 16.2828 101.231 15.0093C101.231 13.7357 101.648 12.6835 102.477 11.8526C103.31 10.9945 104.364 10.5791 105.615 10.5791C106.865 10.5791 107.919 10.9945 108.752 11.8526C109.582 12.6835 109.998 13.7375 109.998 15.0147C109.998 16.2883 109.582 17.3405 108.752 18.1986C107.919 19.0295 106.864 19.4449 105.615 19.4449C104.365 19.4449 103.31 19.0295 102.477 18.1986" fill="white"/>
<path d="M80.376 2.54736L77.3769 2.54736L77.3769 21.9288L80.376 21.9288L80.376 2.54736Z" fill="white"/>
<path d="M95.6195 21.9288L95.6195 8.08105L92.6204 8.08105L92.6204 16.0822C92.6204 18.0068 91.2454 19.433 89.3019 19.433C87.2044 19.433 85.9846 18.191 85.9846 16.1248L85.9846 8.08542L82.9855 8.08542L82.9855 16.6471C82.9855 20.1723 85.0649 22.2898 88.6484 22.2898C90.2941 22.2898 91.6509 21.714 92.6249 20.3631L92.6249 21.9288L95.6195 21.9288Z" fill="white"/>
<path d="M69.2552 7.72558C67.2279 7.72559 65.4792 8.41797 64.0634 9.83001C62.6477 11.2421 61.9251 12.9583 61.9251 15.0071C61.9251 17.0559 62.6466 18.7733 64.0634 20.1853C65.4803 21.5974 67.2279 22.2898 69.2552 22.2898C71.2508 22.2898 72.9225 21.5974 74.2974 20.1853C74.7655 19.7086 75.1661 19.1744 75.4889 18.5966L73.0516 17.1912C72.8556 17.5427 72.6118 17.8676 72.3267 18.1572C71.9407 18.5697 71.467 18.8975 70.9378 19.1184C70.4087 19.3393 69.8364 19.448 69.2597 19.4373C66.7578 19.4373 64.9287 17.5074 64.9287 15.0071C64.9287 12.5069 66.7578 10.5769 69.2597 10.5769C69.8364 10.5664 70.4088 10.6754 70.9379 10.8965C71.4671 11.1175 71.9407 11.4455 72.3267 11.8581C72.612 12.1476 72.8557 12.4725 73.0516 12.8242L75.4934 11.4187C75.1698 10.8404 74.7676 10.3061 74.2974 9.83001C72.9225 8.41252 71.2508 7.72558 69.2552 7.72558Z" fill="white"/>
<path d="M59.8717 2.54736L56.8726 2.54736L56.8726 21.9288L59.8717 21.9288L59.8717 2.54736Z" fill="white"/>
<path d="M46.4053 7.72558C48.5153 7.72558 50.1259 8.50084 51.2641 10.0514L51.2641 8.08868L54.2632 8.08868L54.2632 21.9365L51.2641 21.9365L51.2641 19.9356C50.1259 21.5145 48.5154 22.2898 46.4054 22.2898C44.489 22.2898 42.8796 21.5974 41.5194 20.1853C40.1592 18.7733 39.4921 17.0287 39.4921 15.0071C39.4921 12.9583 40.158 11.2421 41.5194 9.83001C42.8808 8.41797 44.489 7.72559 46.4053 7.72558ZM50.0149 18.1932C50.8485 17.3351 51.2607 16.2829 51.2607 15.0093C51.2607 13.7357 50.8439 12.6835 50.0149 11.8527C49.1824 10.9945 48.1269 10.5791 46.8776 10.5791C45.6284 10.5791 44.5728 10.9945 43.7404 11.8527C42.9098 12.6835 42.4945 13.7376 42.4945 15.0148C42.4945 16.2883 42.9102 17.3405 43.7404 18.1987C44.5728 19.0295 45.6284 19.445 46.8776 19.445C48.1269 19.445 49.1824 19.0295 50.0149 18.1987" fill="white"/>
<path d="M22.1986 7.72558C20.1724 7.72559 18.4237 8.41797 17.0069 9.83001C15.59 11.2421 14.8686 12.9583 14.8686 15.0071C14.8686 17.0559 15.5912 18.7733 17.0069 20.1853C18.4226 21.5974 20.1781 22.2898 22.1986 22.2898C24.2192 22.2898 25.9747 21.5974 27.3904 20.1853C28.8061 18.7733 29.5287 17.0559 29.5287 15.0071C29.5287 12.9583 28.8073 11.2421 27.3904 9.83001C25.9735 8.41797 24.226 7.72558 22.1986 7.72558ZM22.1986 19.4373C19.6979 19.4373 17.8676 17.5074 17.8676 15.0071C17.8676 12.5069 19.6979 10.578 22.1986 10.578C24.6994 10.578 26.5308 12.508 26.5308 15.0071C26.5308 17.5063 24.7005 19.4373 22.1986 19.4373Z" fill="white"/>
<path d="M34.5811 21.9301L34.5811 14.8339C34.5811 12.4558 35.6741 10.7232 38.7037 10.7493L38.7037 7.75842C36.9505 7.92198 35.5835 8.68633 34.5811 10.0482L34.5811 8.08554L31.5821 8.08554L31.5821 21.9333L34.5811 21.9301Z" fill="white"/>
<path d="M7.33007 7.72558C5.30388 7.72559 3.55404 8.41797 2.13832 9.83001C0.722588 11.2421 9.14918e-07 12.9583 1.27315e-06 15.0071C1.63137e-06 17.0559 0.722589 18.7733 2.13832 20.1853C3.55405 21.5974 5.30955 22.2898 7.33007 22.2898C9.32569 22.2898 10.9974 21.5974 12.3735 20.1853C12.8412 19.7085 13.2414 19.1744 13.5638 18.5966L11.1231 17.1912C10.9266 17.5424 10.6829 17.8672 10.3982 18.1572C10.0119 18.5697 9.53796 18.8974 9.00863 19.1182C8.4793 19.3391 7.90687 19.4479 7.33007 19.4373C4.8282 19.4373 2.99908 17.5074 2.99908 15.0071C2.99908 12.5069 4.82933 10.578 7.33007 10.578C7.90687 10.5674 8.4793 10.6763 9.00863 10.8971C9.53796 11.118 10.0119 11.4457 10.3982 11.8581C10.6832 12.1476 10.9266 12.4725 11.122 12.8242L13.5638 11.4187C13.242 10.8406 12.8417 10.3064 12.3735 9.83001C10.9974 8.41252 9.32568 7.72558 7.33007 7.72558Z" fill="white"/>
</svg>
