<svg width="120" height="120" viewBox="0 0 120 120" fill="none" xmlns="http://www.w3.org/2000/svg">
<rect width="120" height="120" rx="60" fill="#F8F7FC"/>
<path d="M50.6667 67C51.4444 68.5555 54.4 71.6667 60 71.6667C65.6 71.6667 68.5556 68.5555 69.3333 67M51.3955 53.7291H52.2705M51.3955 54.6041H52.2705M67.7289 53.7291H68.6039M67.7289 54.6041H68.6039M83.3333 60C83.3333 72.8866 72.8866 83.3333 60 83.3333C47.1134 83.3333 36.6667 72.8866 36.6667 60C36.6667 47.1133 47.1134 36.6667 60 36.6667C72.8866 36.6667 83.3333 47.1133 83.3333 60ZM53 54.1667C53 54.811 52.4777 55.3333 51.8333 55.3333C51.189 55.3333 50.6667 54.811 50.6667 54.1667C50.6667 53.5223 51.189 53 51.8333 53C52.4777 53 53 53.5223 53 54.1667ZM69.3333 54.1667C69.3333 54.811 68.811 55.3333 68.1667 55.3333C67.5223 55.3333 67 54.811 67 54.1667C67 53.5223 67.5223 53 68.1667 53C68.811 53 69.3333 53.5223 69.3333 54.1667Z" stroke="#6D5FC8" stroke-width="3.33333" stroke-linecap="round"/>
</svg>
