<svg width="120" height="120" viewBox="0 0 120 120" fill="none" xmlns="http://www.w3.org/2000/svg">
<rect width="120" height="120" rx="60" fill="#FFF5F5"/>
<path d="M65.3955 65.3958H66.2705M65.3955 66.2708H66.2705M65.3955 79.3958H66.2705M65.3955 80.2708H66.2705M72.3955 72.3958H73.2705M72.3955 73.2708H73.2705M79.3955 65.3958H80.2705M79.3955 66.2708H80.2705M79.3955 79.3958H80.2705M79.3955 80.2708H80.2705M43.6667 55.3333H50.6667C53.244 55.3333 55.3333 53.244 55.3333 50.6667V43.6667C55.3333 41.0893 53.244 39 50.6667 39H43.6667C41.0893 39 39 41.0893 39 43.6667V50.6667C39 53.244 41.0893 55.3333 43.6667 55.3333ZM43.6667 81H50.6667C53.244 81 55.3333 78.9107 55.3333 76.3333V69.3333C55.3333 66.756 53.244 64.6667 50.6667 64.6667H43.6667C41.0893 64.6667 39 66.756 39 69.3333V76.3333C39 78.9107 41.0893 81 43.6667 81ZM69.3333 55.3333H76.3333C78.9107 55.3333 81 53.244 81 50.6667V43.6667C81 41.0893 78.9107 39 76.3333 39H69.3333C66.756 39 64.6667 41.0893 64.6667 43.6667V50.6667C64.6667 53.244 66.756 55.3333 69.3333 55.3333ZM67 65.8333C67 66.4777 66.4777 67 65.8333 67C65.189 67 64.6667 66.4777 64.6667 65.8333C64.6667 65.189 65.189 64.6667 65.8333 64.6667C66.4777 64.6667 67 65.189 67 65.8333ZM67 79.8333C67 80.4777 66.4777 81 65.8333 81C65.189 81 64.6667 80.4777 64.6667 79.8333C64.6667 79.189 65.189 78.6667 65.8333 78.6667C66.4777 78.6667 67 79.189 67 79.8333ZM74 72.8333C74 73.4777 73.4777 74 72.8333 74C72.189 74 71.6667 73.4777 71.6667 72.8333C71.6667 72.189 72.189 71.6667 72.8333 71.6667C73.4777 71.6667 74 72.189 74 72.8333ZM81 65.8333C81 66.4777 80.4777 67 79.8333 67C79.189 67 78.6667 66.4777 78.6667 65.8333C78.6667 65.189 79.189 64.6667 79.8333 64.6667C80.4777 64.6667 81 65.189 81 65.8333ZM81 79.8333C81 80.4777 80.4777 81 79.8333 81C79.189 81 78.6667 80.4777 78.6667 79.8333C78.6667 79.189 79.189 78.6667 79.8333 78.6667C80.4777 78.6667 81 79.189 81 79.8333Z" stroke="#FC6368" stroke-width="3.33333" stroke-linecap="round"/>
</svg>
