<svg width="120" height="120" viewBox="0 0 120 120" fill="none" xmlns="http://www.w3.org/2000/svg">
<rect width="120" height="120" rx="60" fill="#F5FCEE"/>
<path d="M55.3334 83.3333C65.2508 83.3333 73.3619 75.5993 73.9642 65.8335C74.0039 65.1904 73.4777 64.6667 72.8334 64.6667H56.5001C55.8557 64.6667 55.3334 64.1443 55.3334 63.5V47.1667C55.3334 46.5223 54.8096 45.9962 54.1665 46.0359C44.4008 46.6382 36.6667 54.7492 36.6667 64.6667C36.6667 74.976 45.0241 83.3333 55.3334 83.3333Z" stroke="#86D73A" stroke-width="3.33333"/>
<path d="M83.2975 54.1665C82.719 44.7866 75.2135 37.2811 65.8336 36.7025C65.1905 36.6629 64.6667 37.189 64.6667 37.8333V54.1667C64.6667 54.811 65.1891 55.3333 65.8334 55.3333L82.1667 55.3333C82.8111 55.3333 83.3372 54.8096 83.2975 54.1665Z" stroke="#86D73A" stroke-width="3.33333"/>
</svg>
