<svg width="120" height="120" viewBox="0 0 120 120" fill="none" xmlns="http://www.w3.org/2000/svg">
<rect width="120" height="120" rx="60" fill="#FFFDEB"/>
<path d="M75.8169 46.1783L74.2563 46.7635L75.8169 46.1783ZM79.3118 55.4982L77.7513 56.0834L79.3118 55.4982ZM77.6003 63.3997L76.4218 62.2212L77.6003 63.3997ZM65.2797 75.7203L66.4582 76.8988L65.2797 75.7203ZM54.7203 75.7203L53.5418 76.8988L54.7203 75.7203ZM42.3997 63.3997L41.2212 64.5782H41.2212L42.3997 63.3997ZM40.6882 55.4982L42.2487 56.0834V56.0834L40.6882 55.4982ZM44.1832 46.1783L45.7437 46.7635L44.1832 46.1783ZM40.2067 60.8218L38.7004 61.5349L38.7004 61.5349L40.2067 60.8218ZM39.7585 58.7525L38.0921 58.7267L39.7585 58.7525ZM61.4421 78.8386L61.9571 80.4237H61.9571L61.4421 78.8386ZM58.5579 78.8386L58.0429 80.4237H58.0429L58.5579 78.8386ZM80.2415 58.7525L81.9079 58.7267V58.7267L80.2415 58.7525ZM79.7933 60.8218L81.2997 61.5349L81.2997 61.5349L79.7933 60.8218ZM72.4257 41.6384L71.8329 43.1961V43.1961L72.4257 41.6384ZM74.2671 42.9145L73.0167 44.0165V44.0165L74.2671 42.9145ZM47.5743 41.6384L46.9816 40.0807V40.0807L47.5743 41.6384ZM45.7329 42.9145L44.4825 41.8126L44.4825 41.8126L45.7329 42.9145ZM67 59.3333C67.9205 59.3333 68.6667 58.5871 68.6667 57.6667C68.6667 56.7462 67.9205 56 67 56V59.3333ZM53 56C52.0795 56 51.3333 56.7462 51.3333 57.6667C51.3333 58.5871 52.0795 59.3333 53 59.3333V56ZM51.1744 43H68.8256V39.6667H51.1744V43ZM74.2563 46.7635L77.7513 56.0834L80.8724 54.913L77.3774 45.5931L74.2563 46.7635ZM76.4218 62.2212L64.1012 74.5418L66.4582 76.8988L78.7788 64.5782L76.4218 62.2212ZM55.8988 74.5418L43.5782 62.2212L41.2212 64.5782L53.5418 76.8988L55.8988 74.5418ZM42.2487 56.0834L45.7437 46.7635L42.6226 45.5931L39.1276 54.913L42.2487 56.0834ZM43.5782 62.2212C42.2577 60.9007 41.906 60.516 41.7131 60.1086L38.7004 61.5349C39.1997 62.5896 40.0792 63.4362 41.2212 64.5782L43.5782 62.2212ZM39.1276 54.913C38.5605 56.4252 38.1102 57.5598 38.0921 58.7267L41.425 58.7784C41.432 58.3277 41.593 57.8319 42.2487 56.0834L39.1276 54.913ZM41.7131 60.1086C41.5165 59.6931 41.4179 59.238 41.425 58.7784L38.0921 58.7267C38.077 59.697 38.2851 60.6578 38.7004 61.5349L41.7131 60.1086ZM64.1012 74.5418C63.1577 75.4852 62.5201 76.1211 61.9888 76.5721C61.4725 77.0104 61.1672 77.1755 60.9271 77.2535L61.9571 80.4237C62.7825 80.1555 63.472 79.6854 64.1461 79.1132C64.8052 78.5536 65.5536 77.8034 66.4582 76.8988L64.1012 74.5418ZM53.5418 76.8988C54.4464 77.8034 55.1948 78.5536 55.8539 79.1132C56.528 79.6854 57.2175 80.1555 58.0429 80.4237L59.073 77.2535C58.8328 77.1755 58.5276 77.0104 58.0112 76.5721C57.4799 76.1211 56.8423 75.4852 55.8988 74.5418L53.5418 76.8988ZM60.9271 77.2535C60.3245 77.4493 59.6755 77.4493 59.073 77.2535L58.0429 80.4237C59.3149 80.837 60.6851 80.837 61.9571 80.4237L60.9271 77.2535ZM77.7513 56.0834C78.407 57.8319 78.568 58.3277 78.575 58.7784L81.9079 58.7267C81.8898 57.5598 81.4395 56.4252 80.8724 54.913L77.7513 56.0834ZM78.7788 64.5782C79.9208 63.4362 80.8003 62.5896 81.2997 61.5349L78.2869 60.1086C78.094 60.516 77.7423 60.9007 76.4218 62.2212L78.7788 64.5782ZM78.575 58.7784C78.5821 59.238 78.4836 59.6931 78.2869 60.1086L81.2997 61.5349C81.7149 60.6578 81.923 59.697 81.9079 58.7267L78.575 58.7784ZM68.8256 43C70.8275 43 71.3866 43.0263 71.8329 43.1961L73.0184 40.0807C71.8612 39.6404 70.5547 39.6667 68.8256 39.6667V43ZM77.3774 45.5931C76.7703 43.974 76.3362 42.7415 75.5175 41.8126L73.0167 44.0165C73.3325 44.3748 73.5534 44.889 74.2563 46.7635L77.3774 45.5931ZM71.8329 43.1961C72.2883 43.3694 72.6946 43.651 73.0167 44.0165L75.5175 41.8126C74.8375 41.0409 73.9797 40.4465 73.0184 40.0807L71.8329 43.1961ZM51.1744 39.6667C49.4453 39.6667 48.1388 39.6404 46.9816 40.0807L48.1671 43.1961C48.6134 43.0263 49.1725 43 51.1744 43V39.6667ZM45.7437 46.7635C46.4466 44.889 46.6675 44.3748 46.9833 44.0165L44.4825 41.8126C43.6639 42.7415 43.2297 43.974 42.6226 45.5931L45.7437 46.7635ZM46.9816 40.0807C46.0203 40.4465 45.1626 41.0409 44.4825 41.8126L46.9833 44.0165C47.3054 43.651 47.7117 43.3694 48.1671 43.1961L46.9816 40.0807ZM67 56H53V59.3333H67V56Z" fill="#FEA000"/>
</svg>
